<svg width="1643" height="822" viewBox="0 0 1643 822" fill="none" xmlns="http://www.w3.org/2000/svg">
<path d="M224.103 79.6042H70C31.3401 79.6042 0 110.944 0 149.604V280.143C0 318.803 31.3402 350.143 70.0001 350.143H998.189C1036.85 350.143 1068.19 381.483 1068.19 420.143V550.336C1068.19 568.798 1083.16 583.764 1101.62 583.764C1120.08 583.764 1135.05 598.73 1135.05 617.192V767.46C1135.05 797.581 1159.46 822 1189.59 822C1219.71 822 1244.13 797.581 1244.13 767.46V637.048C1244.13 607.62 1267.98 583.764 1297.41 583.764H1326.18C1339.72 583.764 1350.69 594.74 1350.69 608.28C1350.69 621.82 1361.67 632.796 1375.21 632.796H1393.03C1406.57 632.796 1417.55 621.82 1417.55 608.28C1417.55 594.74 1428.53 583.764 1442.07 583.764H1446.7C1462.81 583.764 1475.86 596.818 1475.86 612.92V634.238C1475.86 662.114 1498.46 684.712 1526.33 684.712H1535.93C1569.11 684.712 1596 657.817 1596 624.642V104.989C1596 90.9696 1584.63 79.6042 1570.61 79.6042C1556.59 79.6042 1545.23 68.2389 1545.23 54.219V53.6463C1545.23 39.3102 1533.61 27.6884 1519.27 27.6884H1501.82C1487.48 27.6884 1475.86 39.3102 1475.86 53.6463C1475.86 67.9825 1464.24 79.6042 1449.9 79.6042H1244.13H863.097H386.147C364.165 79.6042 346.345 61.7842 346.345 39.8021C346.345 17.82 328.525 0 306.542 0H303.708C281.726 0 263.905 17.82 263.905 39.8021C263.905 61.7842 246.085 79.6042 224.103 79.6042Z" fill="#C2FFFF" fill-opacity="0.89"/>
<g filter="url(#filter0_dd_302_93)">
<path d="M1112.53 182.031L1117.16 182.031L1117.16 201.312L1140.53 201.312L1140.53 182.031L1145.16 182.031L1145.16 228L1140.53 228L1140.53 205.812L1117.16 205.812L1117.16 228L1112.53 228L1112.53 182.031ZM1171.72 193.125C1176.95 193.125 1181.28 195.021 1184.72 198.812C1187.84 202.271 1189.41 206.365 1189.41 211.094C1189.41 215.844 1187.75 220 1184.44 223.562C1181.15 227.104 1176.91 228.875 1171.72 228.875C1166.51 228.875 1162.25 227.104 1158.94 223.562C1155.65 220 1154 215.844 1154 211.094C1154 206.385 1155.56 202.302 1158.69 198.844C1162.12 195.031 1166.47 193.125 1171.72 193.125ZM1171.72 197.406C1168.09 197.406 1164.98 198.75 1162.37 201.437C1159.77 204.125 1158.47 207.375 1158.47 211.187C1158.47 213.646 1159.06 215.937 1160.25 218.062C1161.44 220.187 1163.04 221.833 1165.06 223C1167.08 224.146 1169.3 224.719 1171.72 224.719C1174.14 224.719 1176.35 224.146 1178.37 223C1180.4 221.833 1182 220.187 1183.19 218.062C1184.37 215.937 1184.97 213.646 1184.97 211.187C1184.97 207.375 1183.66 204.125 1181.03 201.437C1178.43 198.75 1175.32 197.406 1171.72 197.406ZM1192.97 194L1197.47 194L1207.87 218.687L1218.78 194L1219.56 194L1230.44 218.687L1241.03 194L1245.59 194L1230.84 228L1230 228L1219.19 203.656L1208.28 228L1207.47 228L1192.97 194ZM1272.31 181.375L1276.72 181.375L1276.72 194L1283.66 194L1283.66 197.75L1276.72 197.75L1276.72 228L1272.31 228L1272.31 197.75L1266.34 197.75L1266.34 194L1272.31 194L1272.31 181.375ZM1306.28 193.125C1311.51 193.125 1315.84 195.021 1319.28 198.812C1322.41 202.271 1323.97 206.365 1323.97 211.094C1323.97 215.844 1322.31 220 1319 223.562C1315.71 227.104 1311.47 228.875 1306.28 228.875C1301.07 228.875 1296.81 227.104 1293.5 223.562C1290.21 220 1288.56 215.844 1288.56 211.094C1288.56 206.385 1290.12 202.302 1293.25 198.844C1296.69 195.031 1301.03 193.125 1306.28 193.125ZM1306.28 197.406C1302.66 197.406 1299.54 198.75 1296.94 201.437C1294.33 204.125 1293.03 207.375 1293.03 211.187C1293.03 213.646 1293.62 215.937 1294.81 218.062C1296 220.187 1297.6 221.833 1299.62 223C1301.65 224.146 1303.86 224.719 1306.28 224.719C1308.7 224.719 1310.92 224.146 1312.94 223C1314.96 221.833 1316.56 220.187 1317.75 218.062C1318.94 215.937 1319.53 213.646 1319.53 211.187C1319.53 207.375 1318.22 204.125 1315.59 201.437C1312.99 198.75 1309.89 197.406 1306.28 197.406ZM1108.03 264.5L1108.03 260.031L1133.25 260.031L1133.25 264.5L1123 264.5L1123 306L1118.31 306L1118.31 264.5L1108.03 264.5ZM1138.56 272L1142.97 272L1142.97 287.875C1142.97 291.75 1143.18 294.417 1143.59 295.875C1144.22 297.958 1145.41 299.604 1147.16 300.812C1148.93 302.021 1151.03 302.625 1153.47 302.625C1155.91 302.625 1157.97 302.042 1159.66 300.875C1161.36 299.687 1162.54 298.135 1163.19 296.219C1163.62 294.906 1163.84 292.125 1163.84 287.875L1163.84 272L1168.31 272L1168.31 288.687C1168.31 293.375 1167.76 296.906 1166.66 299.281C1165.57 301.656 1163.93 303.521 1161.72 304.875C1159.53 306.208 1156.78 306.875 1153.47 306.875C1150.16 306.875 1147.39 306.208 1145.16 304.875C1142.95 303.521 1141.29 301.646 1140.19 299.25C1139.1 296.833 1138.56 293.208 1138.56 288.375L1138.56 272ZM1176.41 272L1180.87 272L1180.87 276.969C1182.21 275.01 1183.61 273.552 1185.09 272.594C1186.57 271.615 1188.11 271.125 1189.72 271.125C1190.93 271.125 1192.22 271.51 1193.59 272.281L1191.31 275.969C1190.4 275.573 1189.62 275.375 1189 275.375C1187.54 275.375 1186.14 275.979 1184.78 277.187C1183.43 278.375 1182.4 280.229 1181.69 282.75C1181.15 284.687 1180.87 288.604 1180.87 294.5L1180.87 306L1176.41 306L1176.41 272ZM1197.31 272L1201.69 272L1201.69 278.094C1203.44 275.76 1205.37 274.021 1207.5 272.875C1209.62 271.708 1211.94 271.125 1214.44 271.125C1216.98 271.125 1219.23 271.771 1221.19 273.062C1223.17 274.354 1224.62 276.094 1225.56 278.281C1226.5 280.469 1226.97 283.875 1226.97 288.5L1226.97 306L1222.62 306L1222.62 289.781C1222.62 285.865 1222.46 283.25 1222.12 281.937C1221.6 279.687 1220.62 278 1219.19 276.875C1217.75 275.729 1215.87 275.156 1213.56 275.156C1210.92 275.156 1208.54 276.031 1206.44 277.781C1204.35 279.531 1202.98 281.698 1202.31 284.281C1201.9 285.969 1201.69 289.052 1201.69 293.531L1201.69 306L1197.31 306L1197.31 272ZM1255 260.031L1259.59 260.031L1259.59 287.781C1259.59 291.073 1259.66 293.125 1259.78 293.937C1260.01 295.75 1260.54 297.271 1261.37 298.5C1262.21 299.708 1263.49 300.729 1265.22 301.562C1266.95 302.375 1268.69 302.781 1270.44 302.781C1271.96 302.781 1273.42 302.458 1274.81 301.812C1276.21 301.167 1277.37 300.271 1278.31 299.125C1279.25 297.979 1279.94 296.594 1280.37 294.969C1280.69 293.802 1280.84 291.406 1280.84 287.781L1280.84 260.031L1285.44 260.031L1285.44 287.781C1285.44 291.885 1285.03 295.208 1284.22 297.75C1283.43 300.271 1281.82 302.469 1279.41 304.344C1277.01 306.219 1274.1 307.156 1270.69 307.156C1266.98 307.156 1263.8 306.271 1261.16 304.5C1258.51 302.729 1256.74 300.385 1255.84 297.469C1255.28 295.677 1255 292.448 1255 287.781L1255 260.031ZM1296.12 260.031L1300.72 260.031L1300.72 306L1296.12 306L1296.12 260.031ZM1332.12 259.375L1336.53 259.375L1336.53 272L1343.47 272L1343.47 275.75L1336.53 275.75L1336.53 306L1332.12 306L1332.12 275.75L1326.16 275.75L1326.16 272L1332.12 272L1332.12 259.375ZM1366.09 271.125C1371.32 271.125 1375.66 273.021 1379.09 276.812C1382.22 280.271 1383.78 284.365 1383.78 289.094C1383.78 293.844 1382.12 298 1378.81 301.562C1375.52 305.104 1371.28 306.875 1366.09 306.875C1360.89 306.875 1356.62 305.104 1353.31 301.562C1350.02 298 1348.37 293.844 1348.37 289.094C1348.37 284.385 1349.94 280.302 1353.06 276.844C1356.5 273.031 1360.84 271.125 1366.09 271.125ZM1366.09 275.406C1362.47 275.406 1359.35 276.75 1356.75 279.437C1354.15 282.125 1352.84 285.375 1352.84 289.187C1352.84 291.646 1353.44 293.937 1354.62 296.062C1355.81 298.187 1357.42 299.833 1359.44 301C1361.46 302.146 1363.68 302.719 1366.09 302.719C1368.51 302.719 1370.73 302.146 1372.75 301C1374.77 299.833 1376.37 298.187 1377.56 296.062C1378.75 293.937 1379.34 291.646 1379.34 289.187C1379.34 285.375 1378.03 282.125 1375.41 279.437C1372.8 276.75 1369.7 275.406 1366.09 275.406ZM1115.47 348.687L1110.78 348.687C1111.64 344.896 1113.27 341.979 1115.69 339.937C1118.1 337.896 1120.96 336.875 1124.25 336.875C1126.65 336.875 1128.87 337.427 1130.94 338.531C1133.02 339.615 1134.62 341.083 1135.75 342.937C1136.9 344.792 1137.47 346.729 1137.47 348.75C1137.47 352.708 1135.5 355.844 1131.56 358.156C1133.77 359.052 1135.58 360.365 1137 362.094C1139 364.531 1140 367.26 1140 370.281C1140 372.885 1139.31 375.375 1137.94 377.75C1136.56 380.104 1134.69 381.927 1132.31 383.219C1129.94 384.51 1127.28 385.156 1124.34 385.156C1120.39 385.156 1117.08 384.021 1114.44 381.75C1111.79 379.458 1110.06 376.104 1109.25 371.687L1113.75 371.687C1114.54 374.667 1115.68 376.823 1117.16 378.156C1119.05 379.844 1121.47 380.687 1124.41 380.687C1127.74 380.687 1130.42 379.687 1132.44 377.687C1134.46 375.687 1135.47 373.344 1135.47 370.656C1135.47 368.865 1134.96 367.187 1133.94 365.625C1132.94 364.062 1131.58 362.885 1129.87 362.094C1128.19 361.302 1125.56 360.812 1122 360.625L1122 356.406C1124.1 356.406 1126.02 356.042 1127.75 355.312C1129.48 354.562 1130.73 353.615 1131.5 352.469C1132.29 351.323 1132.69 350.073 1132.69 348.719C1132.69 346.719 1131.89 344.99 1130.28 343.531C1128.7 342.073 1126.69 341.344 1124.25 341.344C1122.27 341.344 1120.56 341.906 1119.12 343.031C1117.69 344.135 1116.47 346.021 1115.47 348.687ZM1148.09 384L1148.09 338.031L1157.62 338.031C1164.5 338.031 1169.49 338.583 1172.59 339.687C1177.05 341.25 1180.53 343.958 1183.03 347.812C1185.55 351.667 1186.81 356.26 1186.81 361.594C1186.81 366.198 1185.81 370.25 1183.81 373.75C1181.83 377.25 1179.25 379.833 1176.06 381.5C1172.9 383.167 1168.45 384 1162.72 384L1148.09 384ZM1152.5 379.656L1157.81 379.656C1164.17 379.656 1168.57 379.26 1171.03 378.469C1174.49 377.344 1177.21 375.323 1179.19 372.406C1181.17 369.469 1182.16 365.885 1182.16 361.656C1182.16 357.219 1181.08 353.427 1178.94 350.281C1176.79 347.135 1173.8 344.979 1169.97 343.812C1167.09 342.937 1162.35 342.5 1155.75 342.5L1152.5 342.5L1152.5 379.656ZM1212.81 350L1217.16 350L1217.16 356.25C1218.89 353.875 1220.87 352.094 1223.12 350.906C1225.37 349.719 1227.89 349.125 1230.66 349.125C1235.49 349.125 1239.62 350.865 1243.06 354.344C1246.5 357.823 1248.22 362.01 1248.22 366.906C1248.22 371.906 1246.51 376.156 1243.09 379.656C1239.7 383.135 1235.59 384.875 1230.78 384.875C1228.07 384.875 1225.58 384.312 1223.31 383.187C1221.04 382.062 1218.99 380.385 1217.16 378.156L1217.16 396.437L1212.81 396.437L1212.81 350ZM1230.31 353.344C1226.52 353.344 1223.32 354.667 1220.72 357.312C1218.14 359.958 1216.84 363.25 1216.84 367.187C1216.84 369.771 1217.42 372.094 1218.56 374.156C1219.73 376.219 1221.39 377.854 1223.53 379.062C1225.7 380.271 1227.98 380.875 1230.37 380.875C1232.73 380.875 1234.94 380.271 1237 379.062C1239.08 377.833 1240.74 376.125 1241.97 373.937C1243.2 371.75 1243.81 369.458 1243.81 367.062C1243.81 364.646 1243.2 362.354 1241.97 360.187C1240.76 358.021 1239.12 356.344 1237.06 355.156C1235 353.948 1232.75 353.344 1230.31 353.344ZM1285.06 372.719L1288.75 374.656C1287.54 377.031 1286.15 378.948 1284.56 380.406C1282.98 381.865 1281.2 382.979 1279.22 383.75C1277.24 384.5 1275 384.875 1272.5 384.875C1266.96 384.875 1262.62 383.062 1259.5 379.437C1256.37 375.792 1254.81 371.677 1254.81 367.094C1254.81 362.781 1256.14 358.937 1258.78 355.562C1262.14 351.271 1266.62 349.125 1272.25 349.125C1278.04 349.125 1282.67 351.323 1286.12 355.719C1288.58 358.823 1289.83 362.698 1289.87 367.344L1259.31 367.344C1259.4 371.302 1260.66 374.552 1263.09 377.094C1265.53 379.615 1268.54 380.875 1272.12 380.875C1273.85 380.875 1275.53 380.573 1277.16 379.969C1278.8 379.365 1280.2 378.562 1281.34 377.562C1282.49 376.562 1283.73 374.948 1285.06 372.719ZM1285.06 363.562C1284.48 361.229 1283.62 359.365 1282.5 357.969C1281.4 356.573 1279.93 355.448 1278.09 354.594C1276.26 353.74 1274.33 353.312 1272.31 353.312C1268.98 353.312 1266.11 354.385 1263.72 356.531C1261.97 358.094 1260.65 360.437 1259.75 363.562L1285.06 363.562ZM1296.41 350L1300.87 350L1300.87 354.969C1302.21 353.01 1303.61 351.552 1305.09 350.594C1306.57 349.615 1308.11 349.125 1309.72 349.125C1310.93 349.125 1312.22 349.51 1313.59 350.281L1311.31 353.969C1310.4 353.573 1309.62 353.375 1309 353.375C1307.54 353.375 1306.14 353.979 1304.78 355.187C1303.43 356.375 1302.4 358.229 1301.69 360.75C1301.15 362.687 1300.87 366.604 1300.87 372.5L1300.87 384L1296.41 384L1296.41 350ZM1334.41 353.719L1331.59 356.625C1329.26 354.354 1326.98 353.219 1324.75 353.219C1323.33 353.219 1322.11 353.687 1321.09 354.625C1320.09 355.562 1319.59 356.656 1319.59 357.906C1319.59 359.01 1320.01 360.062 1320.84 361.062C1321.68 362.083 1323.43 363.281 1326.09 364.656C1329.34 366.344 1331.55 367.969 1332.72 369.531C1333.86 371.115 1334.44 372.896 1334.44 374.875C1334.44 377.667 1333.46 380.031 1331.5 381.969C1329.54 383.906 1327.09 384.875 1324.16 384.875C1322.2 384.875 1320.32 384.448 1318.53 383.594C1316.76 382.74 1315.29 381.562 1314.12 380.062L1316.87 376.937C1319.1 379.458 1321.47 380.719 1323.97 380.719C1325.72 380.719 1327.21 380.156 1328.44 379.031C1329.67 377.906 1330.28 376.583 1330.28 375.062C1330.28 373.812 1329.87 372.698 1329.06 371.719C1328.25 370.76 1326.42 369.552 1323.56 368.094C1320.5 366.51 1318.42 364.948 1317.31 363.406C1316.21 361.865 1315.66 360.104 1315.66 358.125C1315.66 355.542 1316.53 353.396 1318.28 351.687C1320.05 349.979 1322.28 349.125 1324.97 349.125C1328.09 349.125 1331.24 350.656 1334.41 353.719ZM1342.25 350L1346.59 350L1346.59 356.25C1348.32 353.875 1350.31 352.094 1352.56 350.906C1354.81 349.719 1357.32 349.125 1360.09 349.125C1364.93 349.125 1369.06 350.865 1372.5 354.344C1375.94 357.823 1377.66 362.01 1377.66 366.906C1377.66 371.906 1375.95 376.156 1372.53 379.656C1369.14 383.135 1365.03 384.875 1360.22 384.875C1357.51 384.875 1355.02 384.312 1352.75 383.187C1350.48 382.062 1348.43 380.385 1346.59 378.156L1346.59 396.437L1342.25 396.437L1342.25 350ZM1359.75 353.344C1355.96 353.344 1352.76 354.667 1350.16 357.312C1347.57 359.958 1346.28 363.25 1346.28 367.187C1346.28 369.771 1346.85 372.094 1348 374.156C1349.17 376.219 1350.82 377.854 1352.97 379.062C1355.14 380.271 1357.42 380.875 1359.81 380.875C1362.17 380.875 1364.37 380.271 1366.44 379.062C1368.52 377.833 1370.18 376.125 1371.41 373.937C1372.64 371.75 1373.25 369.458 1373.25 367.062C1373.25 364.646 1372.64 362.354 1371.41 360.187C1370.2 358.021 1368.56 356.344 1366.5 355.156C1364.44 353.948 1362.19 353.344 1359.75 353.344ZM1414.5 372.719L1418.19 374.656C1416.98 377.031 1415.58 378.948 1414 380.406C1412.42 381.865 1410.64 382.979 1408.66 383.75C1406.68 384.5 1404.44 384.875 1401.94 384.875C1396.4 384.875 1392.06 383.062 1388.94 379.437C1385.81 375.792 1384.25 371.677 1384.25 367.094C1384.25 362.781 1385.57 358.937 1388.22 355.562C1391.57 351.271 1396.06 349.125 1401.69 349.125C1407.48 349.125 1412.1 351.323 1415.56 355.719C1418.02 358.823 1419.27 362.698 1419.31 367.344L1388.75 367.344C1388.83 371.302 1390.09 374.552 1392.53 377.094C1394.97 379.615 1397.98 380.875 1401.56 380.875C1403.29 380.875 1404.97 380.573 1406.59 379.969C1408.24 379.365 1409.64 378.562 1410.78 377.562C1411.93 376.562 1413.17 374.948 1414.5 372.719ZM1414.5 363.562C1413.92 361.229 1413.06 359.365 1411.94 357.969C1410.83 356.573 1409.36 355.448 1407.53 354.594C1405.7 353.74 1403.77 353.312 1401.75 353.312C1398.42 353.312 1395.55 354.385 1393.16 356.531C1391.41 358.094 1390.08 360.437 1389.19 363.562L1414.5 363.562ZM1460.5 357.062L1457.03 359.219C1454.03 355.24 1449.94 353.25 1444.75 353.25C1440.6 353.25 1437.16 354.583 1434.41 357.25C1431.68 359.917 1430.31 363.156 1430.31 366.969C1430.31 369.448 1430.94 371.781 1432.19 373.969C1433.46 376.156 1435.19 377.854 1437.37 379.062C1439.58 380.271 1442.05 380.875 1444.78 380.875C1449.78 380.875 1453.86 378.885 1457.03 374.906L1460.5 377.187C1458.87 379.625 1456.69 381.521 1453.94 382.875C1451.21 384.208 1448.09 384.875 1444.59 384.875C1439.22 384.875 1434.76 383.167 1431.22 379.75C1427.68 376.333 1425.91 372.177 1425.91 367.281C1425.91 363.99 1426.73 360.937 1428.37 358.125C1430.04 355.292 1432.32 353.083 1435.22 351.5C1438.11 349.917 1441.35 349.125 1444.94 349.125C1447.19 349.125 1449.35 349.469 1451.44 350.156C1453.54 350.844 1455.32 351.74 1456.78 352.844C1458.24 353.948 1459.48 355.354 1460.5 357.062ZM1472.75 337.375L1477.16 337.375L1477.16 350L1484.09 350L1484.09 353.75L1477.16 353.75L1477.16 384L1472.75 384L1472.75 353.75L1466.78 353.75L1466.78 350L1472.75 350L1472.75 337.375ZM1492.16 336C1493.16 336 1494.01 336.354 1494.72 337.062C1495.43 337.771 1495.78 338.625 1495.78 339.625C1495.78 340.604 1495.43 341.448 1494.72 342.156C1494.01 342.865 1493.16 343.219 1492.16 343.219C1491.18 343.219 1490.33 342.865 1489.62 342.156C1488.92 341.448 1488.56 340.604 1488.56 339.625C1488.56 338.625 1488.92 337.771 1489.62 337.062C1490.33 336.354 1491.18 336 1492.16 336ZM1489.97 350L1494.37 350L1494.37 384L1489.97 384L1489.97 350ZM1500.22 350L1504.87 350L1516.25 374.75L1527.53 350L1532.22 350L1516.66 384L1515.87 384L1500.22 350ZM1567.56 372.719L1571.25 374.656C1570.04 377.031 1568.65 378.948 1567.06 380.406C1565.48 381.865 1563.7 382.979 1561.72 383.75C1559.74 384.5 1557.5 384.875 1555 384.875C1549.46 384.875 1545.12 383.062 1542 379.437C1538.87 375.792 1537.31 371.677 1537.31 367.094C1537.31 362.781 1538.64 358.937 1541.28 355.562C1544.64 351.271 1549.12 349.125 1554.75 349.125C1560.54 349.125 1565.17 351.323 1568.62 355.719C1571.08 358.823 1572.33 362.698 1572.37 367.344L1541.81 367.344C1541.9 371.302 1543.16 374.552 1545.59 377.094C1548.03 379.615 1551.04 380.875 1554.62 380.875C1556.35 380.875 1558.03 380.573 1559.66 379.969C1561.3 379.365 1562.7 378.562 1563.84 377.562C1564.99 376.562 1566.23 374.948 1567.56 372.719ZM1567.56 363.562C1566.98 361.229 1566.12 359.365 1565 357.969C1563.9 356.573 1562.43 355.448 1560.59 354.594C1558.76 353.74 1556.83 353.312 1554.81 353.312C1551.48 353.312 1548.61 354.385 1546.22 356.531C1544.47 358.094 1543.15 360.437 1542.25 363.562L1567.56 363.562Z" fill="white"/>
</g>
<defs>
<filter id="filter0_dd_302_93" x="1038.03" y="131.375" width="604.344" height="355.062" filterUnits="userSpaceOnUse" color-interpolation-filters="sRGB">
<feFlood flood-opacity="0" result="BackgroundImageFix"/>
<feColorMatrix in="SourceAlpha" type="matrix" values="0 0 0 0 0 0 0 0 0 0 0 0 0 0 0 0 0 0 127 0" result="hardAlpha"/>
<feOffset dy="20"/>
<feGaussianBlur stdDeviation="35"/>
<feColorMatrix type="matrix" values="0 0 0 0 0.344832 0 0 0 0 0.182778 0 0 0 0 0.783333 0 0 0 0.54 0"/>
<feBlend mode="normal" in2="BackgroundImageFix" result="effect1_dropShadow_302_93"/>
<feColorMatrix in="SourceAlpha" type="matrix" values="0 0 0 0 0 0 0 0 0 0 0 0 0 0 0 0 0 0 127 0" result="hardAlpha"/>
<feOffset dy="4"/>
<feGaussianBlur stdDeviation="2"/>
<feColorMatrix type="matrix" values="0 0 0 0 0 0 0 0 0 0 0 0 0 0 0 0 0 0 0.25 0"/>
<feBlend mode="normal" in2="effect1_dropShadow_302_93" result="effect2_dropShadow_302_93"/>
<feBlend mode="normal" in="SourceGraphic" in2="effect2_dropShadow_302_93" result="shape"/>
</filter>
</defs>
</svg>
