<svg width="1596" height="822" viewBox="0 0 1596 822" fill="none" xmlns="http://www.w3.org/2000/svg">
<path d="M224.103 79.6042H70C31.3401 79.6042 0 110.944 0 149.604V280.143C0 318.803 31.3402 350.143 70.0001 350.143H998.189C1036.85 350.143 1068.19 381.483 1068.19 420.143V550.336C1068.19 568.798 1083.16 583.764 1101.62 583.764C1120.08 583.764 1135.05 598.73 1135.05 617.192V767.46C1135.05 797.581 1159.46 822 1189.59 822C1219.71 822 1244.13 797.581 1244.13 767.46V637.048C1244.13 607.62 1267.98 583.764 1297.41 583.764H1326.18C1339.72 583.764 1350.69 594.74 1350.69 608.28C1350.69 621.82 1361.67 632.796 1375.21 632.796H1393.03C1406.57 632.796 1417.55 621.82 1417.55 608.28C1417.55 594.74 1428.53 583.764 1442.07 583.764H1446.7C1462.81 583.764 1475.86 596.818 1475.86 612.92V634.238C1475.86 662.114 1498.46 684.712 1526.33 684.712H1535.93C1569.11 684.712 1596 657.817 1596 624.642V104.989C1596 90.9696 1584.63 79.6042 1570.61 79.6042C1556.59 79.6042 1545.23 68.2389 1545.23 54.219V53.6463C1545.23 39.3102 1533.61 27.6884 1519.27 27.6884H1501.82C1487.48 27.6884 1475.86 39.3102 1475.86 53.6463C1475.86 67.9825 1464.24 79.6042 1449.9 79.6042H1244.13H863.097H386.147C364.165 79.6042 346.345 61.7842 346.345 39.8021C346.345 17.82 328.525 0 306.542 0H303.708C281.726 0 263.905 17.82 263.905 39.8021C263.905 61.7842 246.085 79.6042 224.103 79.6042Z" fill="#C2FFFF" fill-opacity="0.89"/>
</svg>
