<svg width="1440" height="1229" viewBox="0 0 1440 1229" fill="none" xmlns="http://www.w3.org/2000/svg">
<mask id="mask0_1_1005" style="mask-type:alpha" maskUnits="userSpaceOnUse" x="187" y="213" width="1066" height="768">
<path d="M607.766 440.511C612.727 377.012 589.246 311.86 537.322 265.558C457.618 194.783 335.25 195.445 256.207 267.873C166.911 349.231 164.596 487.805 248.931 572.139C294.571 617.448 355.424 637.953 414.954 632.992C421.899 632.662 429.175 631.67 436.12 630.347C441.412 628.693 446.373 627.37 451.664 626.709C485.068 621.748 520.455 632 546.251 657.797C556.835 668.38 564.772 680.286 570.064 693.184C574.363 702.775 576.347 713.028 577.34 723.611C577.67 726.587 578.001 729.564 578.662 732.54C580.978 744.777 585.277 756.683 591.891 767.928C596.522 775.535 602.475 783.141 609.089 789.756C652.745 833.742 724.181 832.75 767.175 787.441C805.87 746.431 806.862 681.278 769.49 639.276C761.553 630.016 752.292 622.74 742.701 617.118C731.457 610.503 719.551 606.204 707.314 603.889C704.337 603.227 701.361 602.897 698.384 602.566C688.132 601.243 677.549 599.259 667.958 595.29C655.06 589.998 643.154 582.061 632.57 571.478C608.097 547.335 597.514 513.932 600.821 482.182C601.041 479.977 601.556 477.773 602.07 475.568C602.327 474.466 602.585 473.363 602.805 472.261C603.797 468.623 604.459 465.315 605.12 461.677C606.112 454.732 607.105 447.456 607.766 440.511Z" fill="url(#paint0_linear_1_1005)"/>
<path d="M832.234 753.489C827.273 816.988 850.754 882.14 902.678 928.442C982.382 999.217 1104.75 998.555 1183.79 926.127C1273.09 844.769 1275.4 706.195 1191.07 621.861C1145.43 576.551 1084.58 556.047 1025.05 561.007C1018.1 561.338 1010.82 562.33 1003.88 563.653C998.588 565.307 993.627 566.63 988.335 567.291C954.932 572.252 919.545 562 893.748 536.203C883.165 525.62 875.228 513.714 869.936 500.816C865.637 491.225 863.653 480.972 862.66 470.389C862.33 467.413 861.999 464.436 861.337 461.459C859.022 449.223 854.723 437.317 848.109 426.072C843.478 418.465 837.525 410.859 830.911 404.244C787.255 360.258 715.819 361.25 672.825 406.559C634.13 447.569 633.138 512.722 670.51 554.724C678.447 563.984 687.707 571.26 697.298 576.882C708.543 583.497 720.449 587.796 732.686 590.111C735.662 590.773 738.639 591.103 741.615 591.434C751.868 592.757 762.451 594.741 772.042 598.71C784.94 604.002 796.846 611.939 807.429 622.522C831.903 646.665 842.486 680.068 839.179 711.818C838.959 714.022 838.444 716.227 837.93 718.432C837.672 719.534 837.415 720.637 837.195 721.739C836.202 725.377 835.541 728.684 834.88 732.322C833.887 739.268 832.895 746.543 832.234 753.489Z" fill="url(#paint1_linear_1_1005)"/>
<path d="M984.898 538.745C933.707 538.745 892.209 497.247 892.209 446.056C892.209 394.865 933.707 353.367 984.898 353.367C1036.09 353.367 1077.59 394.865 1077.59 446.056C1077.59 497.247 1036.09 538.745 984.898 538.745Z" fill="url(#paint2_linear_1_1005)"/>
<path d="M373.149 750.606C373.149 801.797 414.647 843.296 465.838 843.296C517.029 843.296 558.527 801.797 558.527 750.606C558.527 699.416 517.029 657.917 465.838 657.917C414.647 657.917 373.149 699.416 373.149 750.606Z" fill="url(#paint3_linear_1_1005)"/>
</mask>
<g mask="url(#mask0_1_1005)">
<g filter="url(#filter0_ii_1_1005)">
<path fill-rule="evenodd" clip-rule="evenodd" d="M832.233 753.489C827.272 816.988 850.753 882.14 902.677 928.442C982.381 999.216 1104.75 998.555 1183.79 926.127C1273.09 844.768 1275.4 706.195 1191.07 621.861C1145.43 576.551 1084.58 556.047 1025.04 561.007C1018.1 561.338 1010.82 562.33 1003.88 563.653C998.587 565.307 993.626 566.63 988.335 567.291C954.931 572.252 919.544 561.999 893.748 536.203C883.164 525.62 875.227 513.714 869.935 500.816C865.636 491.225 863.652 480.972 862.66 470.389L862.659 470.388C862.329 467.412 861.998 464.436 861.337 461.459C859.022 449.223 854.722 437.317 848.108 426.072C843.478 418.465 837.525 410.859 830.91 404.244C787.254 360.258 715.818 361.25 672.824 406.559C634.129 447.569 633.137 512.722 670.509 554.724C678.446 563.984 687.707 571.26 697.298 576.882C708.542 583.497 720.448 587.796 732.685 590.111C735.661 590.772 738.637 591.103 741.613 591.434L741.615 591.434C751.867 592.757 762.45 594.741 772.041 598.71C784.939 604.001 796.845 611.939 807.429 622.522C831.902 646.665 842.485 680.068 839.178 711.817C838.958 714.022 838.443 716.226 837.929 718.431L837.929 718.431L837.929 718.432C837.671 719.534 837.414 720.637 837.194 721.739C836.202 725.377 835.54 728.684 834.879 732.322C833.886 739.267 832.894 746.543 832.233 753.489ZM607.765 440.511C612.726 377.012 589.245 311.86 537.321 265.558C457.617 194.783 335.249 195.445 256.206 267.873C166.91 349.231 164.595 487.805 248.93 572.139C294.57 617.448 355.423 637.953 414.953 632.992C421.898 632.662 429.174 631.669 436.12 630.347C441.411 628.693 446.372 627.37 451.664 626.709C485.067 621.748 520.454 632 546.251 657.797C556.834 668.38 564.771 680.286 570.063 693.184C574.362 702.775 576.346 713.028 577.339 723.611L577.339 723.612C577.67 726.588 578 729.564 578.662 732.54C580.977 744.777 585.276 756.683 591.89 767.928C596.521 775.534 602.474 783.141 609.088 789.756C652.744 833.742 724.18 832.75 767.174 787.44C805.869 746.431 806.861 681.278 769.489 639.276C761.552 630.016 752.292 622.74 742.701 617.118C731.456 610.503 719.55 606.204 707.313 603.889C704.337 603.227 701.36 602.897 698.384 602.566C688.131 601.243 677.548 599.259 667.957 595.29C655.059 589.998 643.153 582.061 632.57 571.478C608.096 547.335 597.513 513.932 600.82 482.182C601.041 479.977 601.555 477.773 602.07 475.568C602.327 474.465 602.584 473.363 602.804 472.261C603.797 468.623 604.458 465.315 605.12 461.677C606.112 454.732 607.104 447.456 607.765 440.511ZM984.897 538.745C933.706 538.745 892.208 497.247 892.208 446.056C892.208 394.865 933.706 353.367 984.897 353.367C1036.09 353.367 1077.59 394.865 1077.59 446.056C1077.59 497.247 1036.09 538.745 984.897 538.745ZM373.148 750.606C373.148 801.797 414.646 843.296 465.837 843.296C517.028 843.296 558.526 801.797 558.526 750.606C558.526 699.415 517.028 657.917 465.837 657.917C414.646 657.917 373.148 699.415 373.148 750.606Z" fill="url(#paint4_radial_1_1005)"/>
<path fill-rule="evenodd" clip-rule="evenodd" d="M832.233 753.489C827.272 816.988 850.753 882.14 902.677 928.442C982.381 999.216 1104.75 998.555 1183.79 926.127C1273.09 844.768 1275.4 706.195 1191.07 621.861C1145.43 576.551 1084.58 556.047 1025.04 561.007C1018.1 561.338 1010.82 562.33 1003.88 563.653C998.587 565.307 993.626 566.63 988.335 567.291C954.931 572.252 919.544 561.999 893.748 536.203C883.164 525.62 875.227 513.714 869.935 500.816C865.636 491.225 863.652 480.972 862.66 470.389L862.659 470.388C862.329 467.412 861.998 464.436 861.337 461.459C859.022 449.223 854.722 437.317 848.108 426.072C843.478 418.465 837.525 410.859 830.91 404.244C787.254 360.258 715.818 361.25 672.824 406.559C634.129 447.569 633.137 512.722 670.509 554.724C678.446 563.984 687.707 571.26 697.298 576.882C708.542 583.497 720.448 587.796 732.685 590.111C735.661 590.772 738.637 591.103 741.613 591.434L741.615 591.434C751.867 592.757 762.45 594.741 772.041 598.71C784.939 604.001 796.845 611.939 807.429 622.522C831.902 646.665 842.485 680.068 839.178 711.817C838.958 714.022 838.443 716.226 837.929 718.431L837.929 718.431L837.929 718.432C837.671 719.534 837.414 720.637 837.194 721.739C836.202 725.377 835.54 728.684 834.879 732.322C833.886 739.267 832.894 746.543 832.233 753.489ZM607.765 440.511C612.726 377.012 589.245 311.86 537.321 265.558C457.617 194.783 335.249 195.445 256.206 267.873C166.91 349.231 164.595 487.805 248.93 572.139C294.57 617.448 355.423 637.953 414.953 632.992C421.898 632.662 429.174 631.669 436.12 630.347C441.411 628.693 446.372 627.37 451.664 626.709C485.067 621.748 520.454 632 546.251 657.797C556.834 668.38 564.771 680.286 570.063 693.184C574.362 702.775 576.346 713.028 577.339 723.611L577.339 723.612C577.67 726.588 578 729.564 578.662 732.54C580.977 744.777 585.276 756.683 591.89 767.928C596.521 775.534 602.474 783.141 609.088 789.756C652.744 833.742 724.18 832.75 767.174 787.44C805.869 746.431 806.861 681.278 769.489 639.276C761.552 630.016 752.292 622.74 742.701 617.118C731.456 610.503 719.55 606.204 707.313 603.889C704.337 603.227 701.36 602.897 698.384 602.566C688.131 601.243 677.548 599.259 667.957 595.29C655.059 589.998 643.153 582.061 632.57 571.478C608.096 547.335 597.513 513.932 600.82 482.182C601.041 479.977 601.555 477.773 602.07 475.568C602.327 474.465 602.584 473.363 602.804 472.261C603.797 468.623 604.458 465.315 605.12 461.677C606.112 454.732 607.104 447.456 607.765 440.511ZM984.897 538.745C933.706 538.745 892.208 497.247 892.208 446.056C892.208 394.865 933.706 353.367 984.897 353.367C1036.09 353.367 1077.59 394.865 1077.59 446.056C1077.59 497.247 1036.09 538.745 984.897 538.745ZM373.148 750.606C373.148 801.797 414.646 843.296 465.837 843.296C517.028 843.296 558.526 801.797 558.526 750.606C558.526 699.415 517.028 657.917 465.837 657.917C414.646 657.917 373.148 699.415 373.148 750.606Z" fill="#05E2DC" fill-opacity="0.65"/>
</g>
</g>
<defs>
<filter id="filter0_ii_1_1005" x="158.044" y="173.601" width="1136.71" height="858.775" filterUnits="userSpaceOnUse" color-interpolation-filters="sRGB">
<feFlood flood-opacity="0" result="BackgroundImageFix"/>
<feBlend mode="normal" in="SourceGraphic" in2="BackgroundImageFix" result="shape"/>
<feColorMatrix in="SourceAlpha" type="matrix" values="0 0 0 0 0 0 0 0 0 0 0 0 0 0 0 0 0 0 127 0" result="hardAlpha"/>
<feOffset dx="-29.3625" dy="51.3844"/>
<feGaussianBlur stdDeviation="62.3954"/>
<feComposite in2="hardAlpha" operator="arithmetic" k2="-1" k3="1"/>
<feColorMatrix type="matrix" values="0 0 0 0 1 0 0 0 0 1 0 0 0 0 1 0 0 0 0.87 0"/>
<feBlend mode="lighten" in2="shape" result="effect1_innerShadow_1_1005"/>
<feColorMatrix in="SourceAlpha" type="matrix" values="0 0 0 0 0 0 0 0 0 0 0 0 0 0 0 0 0 0 127 0" result="hardAlpha"/>
<feOffset dx="42.16" dy="-39.408"/>
<feGaussianBlur stdDeviation="24.5928"/>
<feComposite in2="hardAlpha" operator="arithmetic" k2="-1" k3="1"/>
<feColorMatrix type="matrix" values="0 0 0 0 0.168627 0 0 0 0 0.180392 0 0 0 0 0.239216 0 0 0 0.9 0"/>
<feBlend mode="multiply" in2="effect1_innerShadow_1_1005" result="effect2_innerShadow_1_1005"/>
</filter>
<linearGradient id="paint0_linear_1_1005" x1="368" y1="1153.8" x2="1097.6" y2="385.8" gradientUnits="userSpaceOnUse">
<stop offset="0.243977" stop-opacity="0"/>
<stop offset="1"/>
</linearGradient>
<linearGradient id="paint1_linear_1_1005" x1="368" y1="1153.8" x2="1097.6" y2="385.8" gradientUnits="userSpaceOnUse">
<stop offset="0.243977" stop-opacity="0"/>
<stop offset="1"/>
</linearGradient>
<linearGradient id="paint2_linear_1_1005" x1="368" y1="1153.8" x2="1097.6" y2="385.8" gradientUnits="userSpaceOnUse">
<stop offset="0.243977" stop-opacity="0"/>
<stop offset="1"/>
</linearGradient>
<linearGradient id="paint3_linear_1_1005" x1="368" y1="1153.8" x2="1097.6" y2="385.8" gradientUnits="userSpaceOnUse">
<stop offset="0.243977" stop-opacity="0"/>
<stop offset="1"/>
</linearGradient>
<radialGradient id="paint4_radial_1_1005" cx="0" cy="0" r="1" gradientUnits="userSpaceOnUse" gradientTransform="translate(1339.53 473.261) rotate(178.087) scale(403.406 756.913)">
<stop stop-color="#949494"/>
<stop offset="0.635171" stop-color="#14CADD"/>
<stop offset="1" stop-color="#006671"/>
</radialGradient>
</defs>
</svg>
