<svg width="555" height="150" viewBox="0 0 555 150" fill="none" xmlns="http://www.w3.org/2000/svg">
<path d="M553.648 46.6668C554.597 55.8543 548 65.528 534.878 75.1659C521.788 84.7801 502.355 94.2455 477.996 103.032C429.285 120.602 360.988 135.418 284.656 143.305C208.323 151.192 138.44 150.653 87.1656 143.413C61.5247 139.793 40.5661 134.501 25.7874 127.766C10.9721 121.015 2.53616 112.895 1.58687 103.707C0.63759 94.5195 7.23502 84.8459 20.3569 75.208C33.4465 65.5938 52.8802 56.1283 77.2393 47.342C125.95 29.772 194.246 14.9558 270.579 7.06885C346.912 -0.818053 416.795 -0.278916 468.069 6.96044C493.71 10.5807 514.669 15.8726 529.447 22.6074C544.263 29.3588 552.699 37.4792 553.648 46.6668Z" stroke="white"/>
</svg>
