<svg width="1920" height="1588" viewBox="0 0 1920 1588" fill="none" xmlns="http://www.w3.org/2000/svg">
<path opacity="0.0144928" d="M1877.32 1314.7C1887.31 1317 1897.62 1312.41 1902.59 1303.45L2120.2 911.438C2123.14 906.138 2123.88 899.891 2122.24 894.055L1950.85 283.956C1949.56 279.367 1946.88 275.291 1943.17 272.293L1509.67 -78.3104C1502.95 -83.7459 1493.75 -84.9544 1485.85 -81.4386L1127.01 78.3296C1119.11 81.8454 1113.85 89.4917 1113.39 98.1234L1083.87 654.879C1083.62 659.639 1084.85 664.361 1087.4 668.39L1426.12 1203.99C1429.36 1209.11 1434.49 1212.75 1440.39 1214.11L1877.32 1314.7Z" stroke="url(#paint0_linear_1_1240)" stroke-width="4"/>
<path opacity="0.0289855" d="M1810.16 1330.88C1819.99 1333.68 1830.49 1329.65 1835.93 1320.99L2072.68 943.968C2075.91 938.827 2076.98 932.617 2075.64 926.694L1937.98 314.007C1936.93 309.342 1934.46 305.119 1930.9 301.927L1519.36 -67.1658C1512.93 -72.9295 1503.82 -74.6093 1495.76 -71.5156L1131.18 68.4327C1123.12 71.5263 1117.47 78.8724 1116.55 87.456L1057.69 637.12C1057.18 641.874 1058.17 646.669 1060.51 650.838L1368.17 1198.27C1371.15 1203.56 1376.09 1207.46 1381.93 1209.12L1810.16 1330.88Z" stroke="url(#paint1_linear_1_1240)" stroke-width="4"/>
<path opacity="0.0434783" d="M1742.95 1344.91C1752.6 1348.19 1763.26 1344.73 1769.14 1336.4L2024.08 975.277C2027.58 970.31 2028.98 964.157 2027.96 958.163L1923.82 344.73C1923.02 340.001 1920.76 335.642 1917.35 332.262L1528.51 -53.9917C1522.4 -60.0674 1513.4 -62.2124 1505.2 -59.5483L1135.97 60.4203C1127.77 63.0844 1121.75 70.1102 1120.37 78.6208L1032.83 619.661C1032.06 624.396 1032.8 629.251 1034.93 633.549L1311.24 1191.04C1313.94 1196.49 1318.69 1200.65 1324.44 1202.6L1742.95 1344.91Z" stroke="url(#paint2_linear_1_1240)" stroke-width="4"/>
<path opacity="0.057971" d="M1675.82 1356.79C1685.27 1360.55 1696.06 1357.66 1702.37 1349.68L1974.46 1005.32C1978.24 1000.54 1979.97 994.465 1979.27 988.416L1908.34 376.051C1907.78 371.272 1905.74 366.787 1902.51 363.227L1537.03 -38.8344C1531.24 -45.2052 1522.37 -47.8083 1514.06 -45.5799L1141.27 54.3082C1132.95 56.5366 1126.58 63.2231 1124.75 71.6361L1009.27 602.57C1008.24 607.271 1008.72 612.175 1010.63 616.591L1255.39 1182.38C1257.8 1187.97 1262.34 1192.37 1268 1194.62L1675.82 1356.79Z" stroke="url(#paint3_linear_1_1240)" stroke-width="4"/>
<path opacity="0.0724638" d="M1608.89 1366.56C1618.11 1370.78 1629 1368.46 1635.71 1360.86L1923.92 1034.06C1927.95 1029.49 1930 1023.5 1929.62 1017.41L1891.51 407.895C1891.21 403.078 1889.4 398.478 1886.34 394.746L1544.8 -21.7475C1539.35 -28.396 1530.65 -31.4485 1522.24 -29.6609L1146.97 50.1046C1138.56 51.8922 1131.85 58.2214 1129.57 66.5126L986.969 585.913C985.692 590.567 985.91 595.505 987.594 600.027L1200.69 1172.35C1202.81 1178.07 1207.13 1182.7 1212.67 1185.24L1608.89 1366.56Z" stroke="url(#paint4_linear_1_1240)" stroke-width="4"/>
<path opacity="0.0869565" d="M1542.26 1374.24C1551.23 1378.9 1562.19 1377.17 1569.28 1369.96L1872.52 1061.45C1876.8 1057.1 1879.17 1051.22 1879.11 1045.11L1873.32 440.183C1873.27 435.342 1871.7 430.639 1868.82 426.744L1551.74 -2.78946C1546.64 -9.69726 1538.12 -13.1894 1529.63 -11.8463L1152.97 47.8122C1144.49 49.1554 1137.46 55.1103 1134.74 63.2557L965.91 569.751C964.379 574.344 964.336 579.303 965.788 583.922L1147.21 1161.03C1149.04 1166.86 1153.11 1171.72 1158.53 1174.54L1542.26 1374.24Z" stroke="url(#paint5_linear_1_1240)" stroke-width="4"/>
<path opacity="0.101449" d="M1476.05 1379.86C1484.75 1384.96 1495.75 1383.81 1503.2 1377.01L1820.34 1087.47C1824.86 1083.35 1827.55 1077.59 1827.81 1071.48L1853.75 472.841C1853.96 467.989 1852.63 463.194 1849.95 459.144L1557.73 17.9768C1553 10.8288 1544.68 6.90766 1536.15 7.80388L1159.15 47.4283C1150.62 48.3246 1143.3 53.8893 1140.16 61.8656L946.049 554.148C944.268 558.666 943.962 563.633 945.177 568.336L1095.01 1148.5C1096.54 1154.42 1100.37 1159.49 1105.65 1162.59L1476.05 1379.86Z" stroke="url(#paint6_linear_1_1240)" stroke-width="4"/>
<path opacity="0.115942" d="M1410.38 1383.48C1418.78 1389 1429.79 1388.42 1437.57 1382.06L1767.47 1112.08C1772.21 1108.2 1775.21 1102.59 1775.79 1096.49L1832.79 505.789C1833.26 500.938 1832.18 496.065 1829.69 491.87L1562.69 40.4822C1558.33 33.1132 1550.24 28.7752 1541.69 29.2233L1165.42 48.9431C1156.87 49.3912 1149.27 54.551 1145.71 62.3353L927.351 539.16C925.322 543.591 924.753 548.551 925.725 553.326L1044.16 1134.84C1045.38 1140.84 1048.95 1146.11 1054.07 1149.47L1410.38 1383.48Z" stroke="url(#paint7_linear_1_1240)" stroke-width="4"/>
<path opacity="0.130435" d="M1345.34 1385.14C1353.42 1391.06 1364.41 1391.06 1372.5 1385.14L1713.98 1135.27C1718.93 1131.64 1722.23 1126.19 1723.14 1120.12L1810.44 538.95C1811.17 534.115 1810.33 529.175 1808.06 524.845L1566.54 64.6541C1562.56 57.0841 1554.72 52.3425 1546.17 52.3425H1171.66C1163.11 52.3425 1155.27 57.0842 1151.3 64.6541L909.774 524.845C907.502 529.175 906.668 534.115 907.394 538.95L994.693 1120.12C995.605 1126.19 998.904 1131.64 1003.86 1135.27L1345.34 1385.14Z" stroke="url(#paint8_linear_1_1240)" stroke-width="4"/>
<path opacity="0.144928" d="M1281.03 1384.9C1288.78 1391.2 1299.72 1391.77 1308.09 1386.32L1659.96 1157.01C1665.11 1153.65 1668.7 1148.37 1669.93 1142.35L1786.69 572.248C1787.67 567.442 1787.1 562.447 1785.04 557.993L1569.18 90.4156C1565.6 82.6653 1558.03 77.5343 1549.5 77.0875L1177.79 57.6067C1169.26 57.16 1161.19 61.4712 1156.82 68.805L893.272 511.258C890.762 515.473 889.665 520.38 890.141 525.262L946.668 1104.45C947.265 1110.56 950.286 1116.19 955.056 1120.06L1281.03 1384.9Z" stroke="url(#paint9_linear_1_1240)" stroke-width="4"/>
<path opacity="0.15942" d="M1217.55 1382.81C1224.96 1389.48 1235.81 1390.62 1244.44 1385.64L1605.48 1177.29C1610.82 1174.21 1614.69 1169.12 1616.24 1163.16L1761.55 605.605C1762.79 600.841 1762.47 595.805 1760.63 591.237L1570.55 117.685C1567.37 109.775 1560.08 104.27 1551.61 103.379L1183.69 64.7093C1175.22 63.8184 1166.94 67.688 1162.19 74.7649L877.802 498.447C875.059 502.535 873.699 507.394 873.923 512.312L900.126 1087.9C900.406 1094.05 903.139 1099.83 907.715 1103.95L1217.55 1382.81Z" stroke="url(#paint10_linear_1_1240)" stroke-width="4"/>
<path opacity="0.173913" d="M1155.01 1378.94C1162.04 1385.95 1172.78 1387.65 1181.64 1383.16L1550.64 1196.09C1556.14 1193.3 1560.29 1188.42 1562.16 1182.55L1735.01 638.943C1736.51 634.235 1736.45 629.171 1734.84 624.499L1570.56 146.376C1567.8 138.328 1560.82 132.465 1552.41 131.133L1189.28 73.6186C1180.87 72.2873 1172.42 75.706 1167.3 82.5057L863.312 486.462C860.342 490.409 858.721 495.207 858.69 500.147L855.1 1070.56C855.061 1076.73 857.5 1082.65 861.869 1087L1155.01 1378.94Z" stroke="url(#paint11_linear_1_1240)" stroke-width="4"/>
<path opacity="0.188406" d="M1093.47 1373.36C1100.12 1380.69 1110.72 1382.94 1119.78 1378.95L1495.51 1213.43C1501.16 1210.93 1505.57 1206.28 1507.75 1200.5L1707.1 672.187C1708.85 667.549 1709.05 662.469 1707.68 657.706L1569.16 176.402C1566.81 168.237 1560.15 162.033 1551.84 160.266L1194.45 84.2991C1186.14 82.5326 1177.53 85.4918 1172.06 91.9953L849.752 475.347C846.562 479.141 844.683 483.865 844.396 488.813L811.625 1052.53C811.266 1058.7 813.403 1064.75 817.554 1069.32L1093.47 1373.36Z" stroke="url(#paint12_linear_1_1240)" stroke-width="4"/>
<path opacity="0.202899" d="M1033.04 1366.14C1039.29 1373.77 1049.72 1376.57 1058.95 1373.08L1440.17 1229.28C1445.95 1227.1 1450.62 1222.67 1453.11 1217.01L1677.82 705.263C1679.82 700.708 1680.29 695.627 1679.16 690.783L1566.28 207.671C1564.35 199.411 1558.03 192.883 1549.84 190.688L1199.11 96.7103C1190.92 94.5148 1182.18 97.0077 1176.38 103.196L837.069 465.145C833.667 468.774 831.533 473.409 830.988 478.354L769.725 1033.9C769.047 1040.05 770.875 1046.21 774.796 1051L1033.04 1366.14Z" stroke="url(#paint13_linear_1_1240)" stroke-width="4"/>
<path opacity="0.217391" d="M973.785 1357.36C979.627 1365.27 989.851 1368.6 999.226 1365.63L1384.7 1243.67C1390.61 1241.8 1395.51 1237.62 1398.3 1232.09L1647.2 738.099C1649.45 733.64 1650.18 728.571 1649.3 723.658L1561.87 240.089C1560.37 231.756 1554.4 224.924 1546.35 222.307L1203.18 110.807C1195.13 108.19 1186.29 110.211 1180.17 116.067L825.209 455.895C821.602 459.348 819.217 463.881 818.414 468.809L729.422 1014.76C728.425 1020.87 729.939 1027.13 733.62 1032.12L973.785 1357.36Z" stroke="url(#paint14_linear_1_1240)" stroke-width="4"/>
<path opacity="0.231884" d="M915.784 1347.1C921.201 1355.27 931.198 1359.11 940.689 1356.66L1329.18 1256.59C1335.19 1255.04 1340.32 1251.12 1343.41 1245.74L1615.26 770.62C1617.75 766.27 1618.75 761.227 1618.11 756.257L1555.88 273.559C1554.79 265.174 1549.2 258.057 1541.31 255.027L1206.58 126.537C1198.68 123.507 1189.76 125.052 1183.35 130.56L814.114 447.632C810.312 450.897 807.681 455.314 806.62 460.212L690.732 995.198C689.418 1001.27 690.612 1007.61 694.043 1012.78L915.784 1347.1Z" stroke="url(#paint15_linear_1_1240)" stroke-width="4"/>
<path opacity="0.246377" d="M859.106 1335.45C864.087 1343.85 873.832 1348.19 883.408 1346.27L1273.69 1268.05C1279.79 1266.83 1285.13 1263.19 1288.5 1257.97L1582.02 802.758C1584.75 798.531 1586.01 793.526 1585.62 788.511L1548.25 307.982C1547.6 299.567 1542.39 292.186 1534.68 288.753L1209.21 143.846C1201.5 140.413 1192.53 141.479 1185.84 146.624L803.728 440.388C799.74 443.454 796.867 447.743 795.549 452.598L653.665 975.318C652.036 981.32 652.906 987.726 656.078 993.075L859.106 1335.45Z" stroke="url(#paint16_linear_1_1240)" stroke-width="4"/>
<path opacity="0.26087" d="M803.812 1322.49C808.349 1331.1 817.815 1335.92 827.448 1334.53L1218.31 1278.09C1224.48 1277.2 1230.02 1273.84 1233.67 1268.79L1547.52 834.445C1550.48 830.352 1552 825.4 1551.87 820.352L1538.96 343.258C1538.74 334.836 1533.92 327.212 1526.41 323.387L1211 162.678C1203.5 158.853 1194.5 159.439 1187.55 164.205L793.989 434.194C789.826 437.051 786.717 441.198 785.145 445.996L618.224 955.21C616.284 961.13 616.828 967.584 619.732 973.095L803.812 1322.49Z" stroke="url(#paint17_linear_1_1240)" stroke-width="4"/>
<path opacity="0.275362" d="M749.963 1308.31C754.046 1317.11 763.209 1322.4 772.869 1321.54L1163.11 1286.71C1169.33 1286.15 1175.05 1283.09 1178.97 1278.24L1511.78 865.613C1514.96 861.667 1516.75 856.781 1516.87 851.714L1527.98 379.286C1528.17 370.877 1523.77 363.032 1516.48 358.827L1211.89 182.968C1204.6 178.763 1195.6 178.868 1188.42 183.243L784.838 429.073C780.509 431.71 777.173 435.703 775.347 440.432L584.41 934.966C582.162 940.788 582.377 947.273 585.004 952.934L749.963 1308.31Z" stroke="url(#paint18_linear_1_1240)" stroke-width="4"/>
<path opacity="0.289855" d="M697.608 1293.01C701.231 1301.97 710.068 1307.71 719.726 1307.37L1108.17 1293.93C1114.42 1293.72 1120.31 1290.97 1124.48 1286.31L1474.85 896.2C1478.25 892.414 1480.3 887.607 1480.67 882.533L1515.27 415.963C1515.89 407.591 1511.9 399.545 1504.85 394.973L1211.79 204.652C1204.75 200.08 1195.77 199.707 1188.38 203.679L776.214 425.05C771.731 427.458 768.173 431.285 766.097 435.931L552.216 914.679C549.666 920.388 549.549 926.888 551.893 932.684L697.608 1293.01Z" stroke="url(#paint19_linear_1_1240)" stroke-width="4"/>
<path opacity="0.304348" d="M646.799 1276.68C649.955 1285.78 658.444 1291.94 668.07 1292.13L1053.55 1299.8C1059.81 1299.92 1065.85 1297.49 1070.28 1293.06L1436.76 926.144C1440.37 922.53 1442.68 917.816 1443.31 912.746L1500.81 453.186C1501.85 444.871 1498.29 436.649 1491.51 431.723L1210.64 227.661C1203.86 222.735 1194.94 221.887 1187.35 225.445L768.055 422.143C763.43 424.312 759.659 427.961 757.336 432.512L521.633 894.441C518.787 900.02 518.338 906.519 520.392 912.436L646.799 1276.68Z" stroke="url(#paint20_linear_1_1240)" stroke-width="4"/>
<path opacity="0.318841" d="M597.571 1259.42C600.257 1268.63 608.376 1275.2 617.942 1275.91L999.323 1304.33C1005.58 1304.8 1011.76 1302.69 1016.42 1298.49L1397.57 955.386C1401.38 951.954 1403.93 947.346 1404.83 942.295L1484.6 490.851C1486.06 482.615 1482.93 474.238 1476.43 468.974L1208.39 251.921C1201.89 246.658 1193.04 245.338 1185.29 248.474L760.297 420.365C755.542 422.288 751.566 425.746 749.001 430.189L492.642 874.341C489.505 879.776 488.725 886.256 490.482 892.279L597.571 1259.42Z" stroke="url(#paint21_linear_1_1240)" stroke-width="4"/>
<path opacity="0.333333" d="M549.962 1241.32C552.175 1250.62 559.905 1257.58 569.381 1258.81L945.559 1307.57C951.793 1308.38 958.086 1306.6 962.974 1302.64L1357.3 983.871C1361.31 980.633 1364.11 976.143 1365.26 971.123L1466.63 528.855C1468.49 520.719 1465.8 512.211 1459.6 506.625L1204.97 277.36C1198.77 271.775 1190.03 269.989 1182.13 272.694L752.88 419.73C748.007 421.399 743.835 424.656 741.034 428.979L465.225 854.469C461.805 859.744 460.694 866.188 462.149 872.304L549.962 1241.32Z" stroke="url(#paint22_linear_1_1240)" stroke-width="4"/>
<path opacity="0.347826" d="M504.001 1222.5C505.738 1231.85 513.06 1239.18 522.419 1240.91L892.319 1309.55C898.511 1310.7 904.903 1309.26 910.004 1305.56L1316.03 1011.54C1320.22 1008.51 1323.26 1004.15 1324.67 999.176L1446.88 567.096C1449.15 559.079 1446.91 550.463 1441.01 544.572L1200.34 303.9C1194.45 298.009 1185.84 295.764 1177.82 298.032L745.739 420.247C740.761 421.654 736.404 424.699 733.37 428.889L439.353 834.91C435.659 840.011 434.219 846.404 435.368 852.596L504.001 1222.5Z" stroke="url(#paint23_linear_1_1240)" stroke-width="4"/>
<path opacity="0.362319" d="M459.71 1203.03C460.97 1212.43 467.868 1220.09 477.082 1222.33L839.664 1310.31C845.796 1311.8 852.269 1310.7 857.569 1307.28L1273.78 1038.36C1278.15 1035.54 1281.43 1031.32 1283.09 1026.4L1425.38 605.47C1428.04 597.593 1426.24 588.893 1420.68 582.714L1194.45 331.461C1188.89 325.283 1180.42 322.587 1172.31 324.412L738.81 421.918C733.742 423.058 729.209 425.88 725.949 429.925L414.996 815.749C411.037 820.662 409.269 826.986 410.108 833.24L459.71 1203.03Z" stroke="url(#paint24_linear_1_1240)" stroke-width="4"/>
<path opacity="0.376812" d="M417.107 1183.04C417.892 1192.45 424.349 1200.42 433.391 1203.15L787.654 1309.9C793.707 1311.73 800.244 1310.98 805.728 1307.83L1230.63 1064.26C1235.16 1061.67 1238.67 1057.61 1240.59 1052.76L1402.12 643.877C1405.17 636.16 1403.82 627.4 1398.6 620.952L1187.26 359.964C1182.04 353.516 1173.75 350.38 1165.56 351.758L732.033 424.749C726.888 425.615 722.19 428.205 718.711 432.092L392.12 797.07C387.905 801.782 385.814 808.02 386.34 814.32L417.107 1183.04Z" stroke="url(#paint25_linear_1_1240)" stroke-width="4"/>
<path opacity="0.391304" d="M376.202 1162.61C376.514 1172.01 382.517 1180.27 391.359 1183.47L736.342 1308.37C742.298 1310.52 748.88 1310.13 754.534 1307.28L1186.63 1089.22C1191.31 1086.86 1195.04 1082.97 1197.21 1078.2L1377.12 682.217C1380.55 674.679 1379.66 665.882 1374.79 659.184L1178.72 389.325C1173.86 382.627 1165.77 379.061 1157.54 379.989L725.343 428.734C720.136 429.321 715.285 431.669 711.594 435.389L370.684 778.951C366.223 783.447 363.813 789.584 364.023 795.915L376.202 1162.61Z" stroke="url(#paint26_linear_1_1240)" stroke-width="4"/>
<path opacity="0.405797" d="M337.002 1141.85C336.845 1151.21 342.38 1159.73 350.999 1163.4L685.784 1305.76C691.624 1308.24 698.231 1308.2 704.041 1305.65L1141.83 1113.18C1146.65 1111.06 1150.6 1107.35 1153.01 1102.68L1350.41 720.393C1354.2 713.052 1353.76 704.242 1349.26 697.314L1168.82 419.462C1164.32 412.533 1156.45 408.55 1148.21 409.027L718.682 433.871C713.427 434.174 708.435 436.272 704.54 439.812L350.646 761.469C345.95 765.738 343.226 771.757 343.119 778.103L337.002 1141.85Z" stroke="url(#paint27_linear_1_1240)" stroke-width="4"/>
<path opacity="0.42029" d="M299.506 1120.85C298.883 1130.16 303.941 1138.92 312.309 1143.03L636.024 1302.13C641.731 1304.93 648.344 1305.25 654.293 1303L1096.3 1136.12C1101.24 1134.25 1105.4 1130.73 1108.06 1126.16L1322.01 758.308C1326.15 751.182 1326.17 742.383 1322.04 735.244L1157.52 450.289C1153.4 443.15 1145.78 438.762 1137.53 438.789L711.985 440.149C706.698 440.166 701.578 442.004 697.487 445.354L331.955 744.698C327.036 748.727 324.003 754.613 323.579 760.957L299.506 1120.85Z" stroke="url(#paint28_linear_1_1240)" stroke-width="4"/>
<path opacity="0.434783" d="M263.707 1099.72C262.626 1108.94 267.195 1117.91 275.291 1122.46L587.11 1297.53C592.666 1300.65 599.267 1301.32 605.339 1299.39L1050.09 1157.99C1055.16 1156.38 1059.51 1153.07 1062.4 1148.62L1291.95 795.869C1296.43 788.975 1296.9 780.21 1293.16 772.882L1144.81 481.721C1141.07 474.393 1133.71 469.616 1125.5 469.193L705.196 447.558C699.89 447.285 694.654 448.857 690.377 452.006L314.561 728.708C309.431 732.486 306.097 738.223 305.355 744.551L263.707 1099.72Z" stroke="url(#paint29_linear_1_1240)" stroke-width="4"/>
<path opacity="0.449275" d="M229.595 1078.55C228.062 1087.67 232.135 1096.82 239.935 1101.78L539.084 1292.01C544.472 1295.44 551.041 1296.47 557.219 1294.86L1003.28 1178.78C1008.45 1177.43 1012.98 1174.33 1016.11 1170.01L1260.27 832.985C1265.08 826.339 1265.99 817.633 1262.65 810.136L1130.66 513.674C1127.32 506.177 1120.24 501.027 1112.08 500.158L698.253 456.083C692.946 455.518 687.607 456.816 683.152 459.755L298.409 713.566C293.08 717.082 289.451 722.654 288.393 728.95L229.595 1078.55Z" stroke="url(#paint30_linear_1_1240)" stroke-width="4"/>
<path opacity="0.463768" d="M197.152 1057.45C195.175 1066.43 198.745 1075.73 206.227 1081.09L491.984 1285.64C497.186 1289.37 503.704 1290.76 509.972 1289.48L955.924 1198.45C961.179 1197.37 965.893 1194.5 969.252 1190.32L1227.01 869.567C1232.13 863.186 1233.48 854.56 1230.55 846.918L1115.06 546.061C1112.13 538.418 1105.35 532.911 1097.27 531.6L691.1 465.707C685.806 464.848 680.379 465.866 675.756 468.585L283.438 699.336C277.924 702.579 274.009 707.973 272.635 714.221L197.152 1057.45Z" stroke="url(#paint31_linear_1_1240)" stroke-width="4"/>
<path opacity="0.478261" d="M166.355 1036.49C163.944 1045.32 167.006 1054.75 174.15 1060.48L445.845 1278.48C450.845 1282.49 457.292 1284.23 463.633 1283.29L908.089 1216.98C913.419 1216.18 918.3 1213.54 921.882 1209.52L1192.21 905.532C1197.64 899.43 1199.43 890.907 1196.9 883.141L1098.02 578.797C1095.49 571.031 1089.04 565.184 1081.06 563.437L683.681 476.408C678.416 475.255 672.914 475.987 668.135 478.477L269.587 686.076C263.901 689.038 259.71 694.237 258.023 700.422L166.355 1036.49Z" stroke="url(#paint32_linear_1_1240)" stroke-width="4"/>
<path opacity="0.492754" d="M137.177 1015.77C134.343 1024.44 136.894 1033.96 143.68 1040.04L400.698 1270.58C405.48 1274.87 411.838 1276.96 418.233 1276.35L859.842 1234.36C865.233 1233.84 870.271 1231.45 874.068 1227.58L1155.94 940.799C1161.65 934.989 1163.86 926.592 1161.76 918.724L1079.52 611.799C1077.41 603.931 1071.29 597.764 1063.44 595.588L675.941 488.163C670.722 486.717 665.159 487.158 660.234 489.41L256.791 673.843C250.949 676.514 246.49 681.506 244.493 687.612L137.177 1015.77Z" stroke="url(#paint33_linear_1_1240)" stroke-width="4"/>
<path opacity="0.507246" d="M109.585 995.389C106.34 1003.86 108.378 1013.45 114.788 1019.87L356.572 1262C361.12 1266.56 367.37 1269 373.801 1268.73L811.25 1250.56C816.689 1250.34 821.871 1248.19 825.875 1244.5L1118.24 975.288C1124.22 969.784 1126.85 961.535 1125.16 953.587L1059.57 644.982C1057.88 637.034 1052.12 630.568 1044.42 627.971L667.827 500.947C662.669 499.207 657.062 499.353 652.001 501.359L244.982 662.687C238.998 665.059 234.281 669.831 231.979 675.842L109.585 995.389Z" stroke="url(#paint34_linear_1_1240)" stroke-width="4"/>
<path opacity="0.521739" d="M83.5413 975.424C79.8979 983.683 81.4226 993.31 87.4399 1000.04L313.488 1252.82C317.788 1257.63 323.91 1260.41 330.361 1260.49L762.38 1265.59C767.851 1265.66 773.166 1263.77 777.371 1260.27L1079.18 1008.93C1085.41 1003.74 1088.44 995.661 1087.18 987.656L1038.17 678.265C1036.91 670.26 1031.52 663.513 1023.99 660.505L659.289 514.729C654.208 512.699 648.57 512.546 643.387 514.298L234.09 652.657C227.979 654.723 223.016 659.26 220.413 665.162L83.5413 975.424Z" stroke="url(#paint35_linear_1_1240)" stroke-width="4"/>
<path opacity="0.536232" d="M59.0045 955.96C54.9761 963.988 55.9891 973.626 61.5985 980.64L271.469 1243.09C275.507 1248.13 281.483 1251.25 287.934 1251.67L713.301 1279.44C718.789 1279.79 724.224 1278.17 728.621 1274.87L1038.81 1041.65C1045.27 1036.79 1048.71 1028.9 1047.86 1020.86L1015.35 711.564C1014.51 703.525 1009.51 696.52 1002.18 693.112L650.277 529.48C645.29 527.161 639.636 526.706 634.342 528.197L224.043 643.793C217.821 645.546 212.623 649.837 209.723 655.615L59.0045 955.96Z" stroke="url(#paint36_linear_1_1240)" stroke-width="4"/>
<path opacity="0.550725" d="M35.927 937.077C31.5284 944.855 32.0327 954.476 37.2202 961.752L230.53 1232.87C234.291 1238.14 240.103 1241.59 246.536 1242.35L664.077 1292.09C669.568 1292.74 675.111 1291.4 679.69 1288.3L997.206 1073.38C1003.88 1068.86 1007.7 1061.18 1007.28 1053.13L991.123 744.8C990.701 736.751 986.097 729.51 978.986 725.714L640.744 545.164C635.866 542.56 630.213 541.8 624.821 543.025L214.766 636.134C208.448 637.569 203.028 641.602 199.838 647.241L35.927 937.077Z" stroke="url(#paint37_linear_1_1240)" stroke-width="4"/>
<path opacity="0.565217" d="M14.2592 918.851C9.50593 926.361 9.50593 935.939 14.2592 943.45L190.684 1222.23C194.156 1227.71 199.786 1231.48 206.183 1232.59L614.779 1303.55C620.257 1304.5 625.894 1303.44 630.647 1300.55L954.435 1104.07C961.307 1099.9 965.503 1092.44 965.503 1084.4V777.897C965.503 769.859 961.307 762.404 954.435 758.234L630.647 561.746C625.894 558.861 620.257 557.796 614.779 558.748L206.183 629.714C199.786 630.825 194.156 634.588 190.684 640.075L14.2592 918.851Z" stroke="url(#paint38_linear_1_1240)" stroke-width="4"/>
<path opacity="0.57971" d="M-6.05392 901.355C-11.1454 908.583 -11.6436 918.089 -7.3355 925.809L151.94 1211.23C155.111 1216.91 160.541 1220.98 166.884 1222.44L565.472 1313.83C570.921 1315.08 576.639 1314.31 581.556 1311.65L910.571 1133.65C917.621 1129.84 922.176 1122.63 922.596 1114.62L938.52 810.778C938.939 802.774 935.162 795.129 928.55 790.6L619.942 579.188C615.33 576.029 609.725 574.657 604.175 575.33L198.217 624.562C191.757 625.345 185.931 628.829 182.183 634.149L-6.05392 901.355Z" stroke="url(#paint39_linear_1_1240)" stroke-width="4"/>
<path opacity="0.594203" d="M-25.0714 884.659C-30.484 891.588 -31.4728 900.996 -27.6191 908.899L114.303 1199.94C117.162 1205.8 122.375 1210.17 128.645 1211.97L516.22 1322.94C521.625 1324.49 527.41 1324 532.482 1321.58L865.689 1162.08C872.896 1158.63 877.797 1151.69 878.632 1143.74L910.202 843.371C911.038 835.423 907.688 827.612 901.355 822.739L608.59 597.451C604.134 594.022 598.577 592.344 592.968 592.734L190.79 620.702C184.283 621.155 178.275 624.348 174.26 629.488L-25.0714 884.659Z" stroke="url(#paint40_linear_1_1240)" stroke-width="4"/>
<path opacity="0.608696" d="M-42.8544 868.825C-48.5701 875.441 -50.0407 884.726 -46.649 892.784L77.7764 1188.41C80.3122 1194.44 85.2918 1199.1 91.4709 1201.23L467.09 1330.88C472.436 1332.73 478.274 1332.54 483.488 1330.35L819.866 1189.31C827.213 1186.23 832.443 1179.56 833.689 1171.7L880.585 875.603C881.832 867.735 878.917 859.781 872.882 854.581L596.553 616.492C592.269 612.801 586.775 610.818 581.121 610.921L183.821 618.154C177.286 618.273 171.109 621.167 166.836 626.114L-42.8544 868.825Z" stroke="url(#paint41_linear_1_1240)" stroke-width="4"/>
<path opacity="0.623188" d="M-59.4678 853.915C-65.4682 860.205 -67.4099 869.34 -64.4865 877.527L42.3571 1176.72C44.5605 1182.89 49.2907 1187.83 55.3606 1190.3L418.146 1337.68C423.416 1339.82 429.292 1339.93 434.64 1338L773.183 1215.29C780.65 1212.59 786.192 1206.22 787.843 1198.45L849.707 907.408C851.358 899.64 848.885 891.569 843.164 886.06L583.797 636.268C579.7 632.323 574.286 630.035 568.601 629.847L177.233 616.932C170.685 616.716 164.355 619.303 159.833 624.043L-59.4678 853.915Z" stroke="url(#paint42_linear_1_1240)" stroke-width="4"/>
<path opacity="0.637681" d="M-74.9798 839.985C-81.2456 845.936 -83.6468 854.897 -81.1961 863.184L8.04026 1164.92C9.90259 1171.22 14.3679 1176.42 20.3108 1179.22L369.449 1343.35C374.628 1345.78 380.528 1346.2 385.997 1344.52L725.721 1240C733.288 1237.67 739.126 1231.62 741.175 1223.97L817.607 938.72C819.656 931.073 817.628 922.91 812.239 917.111L570.288 656.734C566.393 652.542 561.075 649.953 555.373 649.472L170.944 617.046C164.4 616.494 157.933 618.766 153.171 623.288L-74.9798 839.985Z" stroke="url(#paint43_linear_1_1240)" stroke-width="4"/>
<path opacity="0.652174" d="M-89.4604 827.085C-95.972 832.687 -98.8195 841.451 -96.8442 849.81L-25.1823 1153.08C-23.6686 1159.49 -19.483 1164.94 -13.6848 1168.05L321.061 1347.91C326.133 1350.64 332.042 1351.36 337.622 1349.94L677.565 1263.4C685.211 1261.45 691.326 1255.72 693.765 1248.21L784.331 969.478C786.77 961.974 785.191 953.743 780.149 947.674L555.999 677.844C552.32 673.416 547.114 670.528 541.409 669.751L164.875 618.502C158.353 617.615 151.763 619.564 146.773 623.856L-89.4604 827.085Z" stroke="url(#paint44_linear_1_1240)" stroke-width="4"/>
<path opacity="0.666667" d="M-102.983 815.263C-109.72 820.506 -113 829.049 -111.501 837.453L-57.3231 1141.25C-56.1647 1147.74 -52.2729 1153.43 -46.6367 1156.86L273.041 1351.39C277.99 1354.41 283.894 1355.44 289.571 1354.29L628.796 1285.45C636.503 1283.89 642.877 1278.5 645.695 1271.15L749.926 999.623C752.744 992.281 751.616 984.009 746.935 977.69L540.901 699.551C537.452 694.895 532.374 691.713 526.681 690.639L158.945 621.301C152.461 620.078 145.765 621.699 140.558 625.751L-102.983 815.263Z" stroke="url(#paint45_linear_1_1240)" stroke-width="4"/>
<path opacity="0.681159" d="M-115.621 804.561C-122.564 809.436 -126.259 817.736 -125.236 826.157L-88.3961 1129.49C-87.5987 1136.05 -84.014 1141.96 -78.557 1145.69L225.447 1353.83C230.258 1357.12 236.14 1358.46 241.904 1357.58L579.502 1306.15C587.249 1304.97 593.862 1299.93 597.05 1292.77L714.443 1029.1C717.631 1021.94 716.954 1013.65 712.647 1007.1L524.972 721.805C521.767 716.934 516.833 713.462 511.166 712.091L153.076 625.438C146.648 623.883 139.862 625.17 134.449 628.97L-115.621 804.561Z" stroke="url(#paint46_linear_1_1240)" stroke-width="4"/>
<path opacity="0.695652" d="M-127.452 795.015C-134.579 799.514 -138.674 807.551 -138.125 815.961L-118.42 1117.86C-117.988 1124.47 -114.723 1130.58 -109.462 1134.61L178.334 1355.24C182.991 1358.81 188.837 1360.46 194.675 1359.86L529.767 1325.48C537.535 1324.68 544.367 1320 547.912 1313.04L677.934 1057.86C681.479 1050.9 681.252 1042.62 677.331 1035.87L508.189 744.558C505.242 739.483 500.467 735.726 494.841 734.057L147.189 630.905C140.834 629.02 133.974 629.968 128.368 633.507L-127.452 795.015Z" stroke="url(#paint47_linear_1_1240)" stroke-width="4"/>
<path opacity="0.710145" d="M-138.554 786.657C-145.844 790.775 -150.321 798.528 -150.242 806.9L-147.416 1106.41C-147.354 1113.05 -144.42 1119.34 -139.371 1123.67L131.755 1355.66C136.244 1359.51 142.038 1361.47 147.937 1361.16L479.677 1343.42C487.445 1343 494.477 1338.69 498.367 1331.95L640.455 1085.84C644.345 1079.11 644.566 1070.86 641.041 1063.92L490.535 767.76C487.859 762.493 483.258 758.458 477.688 756.492L141.207 637.689C134.941 635.477 128.024 636.083 122.238 639.351L-138.554 786.657Z" stroke="url(#paint48_linear_1_1240)" stroke-width="4"/>
<path opacity="0.724638" d="M-149.006 779.515C-156.437 783.246 -161.277 790.698 -161.662 799.004L-175.408 1095.19C-175.717 1101.85 -173.126 1108.31 -168.305 1112.9L85.762 1355.14C90.0665 1359.25 95.7937 1361.53 101.741 1361.5L429.317 1359.96C437.068 1359.93 444.278 1355.99 448.499 1349.49L602.064 1113.02C606.285 1106.52 606.949 1098.33 603.83 1091.24L471.994 791.359C469.6 785.914 465.191 781.609 459.69 779.346L135.055 645.772C128.894 643.238 121.937 643.498 115.984 646.487L-149.006 779.515Z" stroke="url(#paint49_linear_1_1240)" stroke-width="4"/>
<path opacity="0.73913" d="M-158.886 773.611C-166.438 776.951 -171.62 784.084 -172.463 792.298L-202.422 1084.26C-203.104 1090.91 -200.865 1097.52 -196.287 1102.38L40.403 1353.72C44.5087 1358.08 50.1532 1360.67 56.1362 1360.93L378.774 1375.12C386.487 1375.46 393.855 1371.91 398.392 1365.66L562.82 1139.35C567.358 1133.1 568.459 1125 565.753 1117.77L452.554 815.306C450.455 809.697 446.251 805.128 440.836 802.57L128.657 655.133C122.619 652.281 115.639 652.195 109.532 654.896L-158.886 773.611Z" stroke="url(#paint50_linear_1_1240)" stroke-width="4"/>
<path opacity="0.753623" d="M-168.277 768.963C-175.927 771.909 -181.431 778.706 -182.723 786.802L-228.488 1073.67C-229.543 1080.28 -227.665 1087.02 -223.344 1092.14L-4.27626 1351.43C-0.383823 1356.04 5.16249 1358.93 11.168 1359.49L328.131 1388.89C335.787 1389.6 343.291 1386.44 348.13 1380.47L522.784 1164.79C527.622 1158.81 529.155 1150.81 526.869 1143.47L432.205 839.549C430.412 833.79 426.428 828.967 421.112 826.117L121.942 665.746C116.041 662.583 109.056 662.148 102.809 664.554L-168.277 768.963Z" stroke="url(#paint51_linear_1_1240)" stroke-width="4"/>
<path opacity="0.768116" d="M-177.257 765.581C-184.985 768.133 -190.789 774.579 -192.519 782.532L-253.637 1063.46C-255.064 1070.02 -253.555 1076.87 -249.506 1082.22L-48.2324 1348.32C-44.5676 1353.16 -39.1348 1356.36 -33.1201 1357.22L277.471 1401.29C285.052 1402.36 292.671 1399.59 297.795 1393.9L482.018 1189.3C487.142 1183.61 489.097 1175.75 487.235 1168.32L410.941 864.036C409.463 858.144 405.714 853.075 400.513 849.937L114.838 677.58C109.091 674.113 102.117 673.329 95.7444 675.433L-177.257 765.581Z" stroke="url(#paint52_linear_1_1240)" stroke-width="4"/>
<path opacity="0.782609" d="M-185.907 763.474C-193.691 765.631 -199.773 771.713 -201.93 779.497L-277.902 1053.68C-279.699 1060.16 -278.566 1067.11 -274.803 1072.68L-91.4246 1344.44C-88.0014 1349.51 -82.6975 1353.01 -76.6869 1354.16L226.878 1412.32C234.366 1413.75 242.078 1411.38 247.469 1405.99L440.587 1212.87C445.978 1207.48 448.347 1199.77 446.913 1192.28L388.757 888.718C387.605 882.707 384.106 877.403 379.033 873.98L107.278 690.602C101.701 686.838 94.7553 685.706 88.2713 687.502L-185.907 763.474Z" stroke="url(#paint53_linear_1_1240)" stroke-width="4"/>
<path opacity="0.797101" d="M-194.308 762.645C-202.126 764.407 -208.464 770.113 -211.034 777.705L-301.32 1044.36C-303.483 1050.75 -302.733 1057.77 -299.267 1063.55L-133.815 1339.83C-130.647 1345.12 -125.488 1348.92 -119.495 1350.37L176.431 1422.01C183.808 1423.79 191.592 1421.82 197.232 1416.74L398.555 1235.47C404.196 1230.39 406.968 1222.86 405.963 1215.33L365.652 913.542C364.836 907.43 361.599 901.902 356.669 898.199L99.1967 704.774C93.8035 700.723 86.9037 699.243 80.3235 700.726L-194.308 762.645Z" stroke="url(#paint54_linear_1_1240)" stroke-width="4"/>
<path opacity="0.811594" d="M-202.538 763.088C-210.371 764.459 -216.94 769.778 -219.909 777.155L-323.929 1035.55C-326.454 1041.82 -326.091 1048.89 -322.935 1054.87L-175.372 1334.56C-172.472 1340.05 -167.472 1344.14 -161.51 1345.89L126.208 1430.37C133.458 1432.5 141.29 1430.94 147.162 1426.18L355.986 1257.08C361.858 1252.32 365.02 1244.99 364.445 1237.45L341.627 938.459C341.154 932.263 338.195 926.522 333.422 922.543L90.5294 720.054C85.3349 715.724 78.4979 713.899 71.8364 715.065L-202.538 763.088Z" stroke="url(#paint55_linear_1_1240)" stroke-width="4"/>
<path opacity="0.826087" d="M-210.676 764.8C-218.501 765.782 -225.278 770.706 -228.63 777.844L-345.767 1027.28C-348.649 1033.42 -348.676 1040.52 -345.842 1046.68L-216.06 1328.66C-213.441 1334.35 -208.616 1338.72 -202.698 1340.77L76.2873 1437.45C83.3929 1439.92 91.2535 1438.75 97.3375 1434.33L312.948 1277.68C319.032 1273.26 322.571 1266.14 322.425 1258.62L316.689 963.418C316.567 957.156 313.897 951.214 309.295 946.966L81.2182 736.399C76.2364 731.8 69.4792 729.633 62.7517 730.477L-210.676 764.8Z" stroke="url(#paint56_linear_1_1240)" stroke-width="4"/>
<path opacity="0.84058" d="M-218.799 767.767C-226.597 768.365 -233.556 772.885 -237.274 779.765L-366.876 1019.6C-370.108 1025.58 -370.529 1032.68 -368.025 1039L-255.853 1322.2C-253.528 1328.07 -248.892 1332.72 -243.032 1335.07L26.742 1443.27C33.6877 1446.06 41.5545 1445.29 47.8307 1441.22L269.505 1297.26C275.781 1293.18 279.682 1286.31 279.962 1278.83L290.842 988.371C291.078 982.062 288.71 975.933 284.293 971.421L71.2048 753.76C66.4493 748.903 59.7885 746.397 53.0106 746.917L-218.799 767.767Z" stroke="url(#paint57_linear_1_1240)" stroke-width="4"/>
<path opacity="0.855072" d="M-226.982 771.973C-234.732 772.192 -241.85 776.302 -245.916 782.904L-387.299 1012.52C-390.873 1018.32 -391.689 1025.41 -389.526 1031.87L-294.727 1315.22C-292.707 1321.26 -288.275 1326.19 -282.486 1328.84L-22.3565 1447.88C-15.5859 1450.97 -7.73435 1450.6 -1.28607 1446.88L225.723 1315.82C232.171 1312.09 236.418 1305.48 237.121 1298.07L264.096 1013.27C264.696 1006.93 262.643 1000.63 258.424 995.86L60.4357 772.087C55.9194 766.982 49.3717 764.143 42.5588 764.336L-226.982 771.973Z" stroke="url(#paint58_linear_1_1240)" stroke-width="4"/>
<path opacity="0.869565" d="M-235.299 777.396C-242.982 777.243 -250.234 780.938 -254.626 787.244L-407.079 1006.07C-410.986 1011.68 -412.196 1018.73 -410.383 1025.32L-332.658 1307.79C-330.954 1313.98 -326.741 1319.18 -321.036 1322.13L-70.939 1451.3C-64.3578 1454.69 -56.5425 1454.72 -49.9428 1451.35L181.668 1333.34C188.267 1329.98 192.844 1323.64 193.962 1316.32L236.465 1038.07C237.435 1031.72 235.707 1025.25 231.7 1020.24L48.8613 791.324C44.5965 785.984 38.1783 782.818 31.3461 782.682L-235.299 777.396Z" stroke="url(#paint59_linear_1_1240)" stroke-width="4"/>
<path opacity="0.884058" d="M-243.821 784.012C-251.418 783.495 -258.778 786.772 -263.478 792.763L-426.261 1000.29C-430.49 1005.68 -432.095 1012.68 -430.639 1019.37L-369.628 1299.97C-368.252 1306.29 -364.272 1311.75 -358.665 1314.99L-118.941 1453.58C-112.563 1457.27 -104.804 1457.68 -98.074 1454.68L137.403 1349.84C144.133 1346.84 149.021 1340.8 150.548 1333.6L207.962 1062.71C209.305 1056.38 207.915 1049.77 204.132 1044.51L36.4342 811.417C32.4327 805.855 26.1599 802.367 19.324 801.902L-243.821 784.012Z" stroke="url(#paint60_linear_1_1240)" stroke-width="4"/>
<path opacity="0.898551" d="M-252.619 791.792C-260.111 790.92 -267.555 793.777 -272.54 799.439L-444.891 995.192C-449.431 1000.35 -451.428 1007.26 -450.336 1014.05L-405.624 1291.8C-404.586 1298.25 -400.852 1303.96 -395.356 1307.49L-166.299 1454.78C-160.137 1458.74 -152.456 1459.53 -145.617 1456.91L92.9927 1365.32C99.8321 1362.69 105.012 1356.96 106.94 1349.9L178.605 1087.17C180.324 1080.86 179.281 1074.12 175.736 1068.64L23.1112 832.307C19.3841 826.536 13.2725 822.733 6.44868 821.939L-252.619 791.792Z" stroke="url(#paint61_linear_1_1240)" stroke-width="4"/>
<path opacity="0.913043" d="M-261.758 800.701C-269.128 799.483 -276.631 801.921 -281.878 807.238L-463.016 990.798C-467.854 995.701 -470.24 1002.51 -469.518 1009.36L-440.633 1283.35C-439.942 1289.91 -436.47 1295.85 -431.098 1299.68L-212.956 1454.95C-207.022 1459.17 -199.438 1460.33 -192.511 1458.08L48.4995 1379.77C55.4266 1377.52 60.8781 1372.12 63.1962 1365.22L148.411 1111.38C150.51 1105.13 149.824 1098.28 146.529 1092.57L8.85298 853.932C5.41076 847.966 -0.524375 843.856 -7.32047 842.734L-261.758 800.701Z" stroke="url(#paint62_linear_1_1240)" stroke-width="4"/>
<path opacity="0.927536" d="M-271.302 810.704C-278.533 809.152 -286.07 811.171 -291.556 816.131L-480.68 987.125C-485.803 991.757 -488.574 998.446 -488.226 1005.34L-474.646 1274.68C-474.311 1281.32 -471.113 1287.5 -465.878 1291.61L-258.854 1454.13C-253.16 1458.6 -245.692 1460.13 -238.699 1458.26L3.98579 1393.23C10.979 1391.36 16.6817 1386.3 19.3782 1379.58L117.405 1135.32C119.884 1129.14 119.565 1122.2 116.532 1116.27L-6.37461 876.232C-9.52235 870.084 -15.2661 865.677 -22.0188 864.227L-271.302 810.704Z" stroke="url(#paint63_linear_1_1240)" stroke-width="4"/>
<path opacity="0.942029" d="M-281.314 821.76C-288.389 819.884 -295.935 821.488 -301.636 826.079L-497.933 984.185C-503.326 988.529 -506.475 995.071 -506.505 1002L-507.659 1265.84C-507.689 1272.56 -504.778 1278.95 -499.693 1283.35L-303.945 1452.4C-298.5 1457.1 -291.168 1458.98 -284.13 1457.49L-40.4898 1405.7C-33.4522 1404.2 -27.5201 1399.5 -24.4584 1392.99L85.6072 1158.94C88.4668 1152.86 88.5241 1145.83 85.7642 1139.7L-22.6042 899.14C-25.4486 892.826 -30.9864 888.13 -37.6803 886.355L-281.314 821.76Z" stroke="url(#paint64_linear_1_1240)" stroke-width="4"/>
<path opacity="0.956522" d="M-291.851 833.824C-298.755 831.637 -306.286 832.83 -312.177 837.043L-514.822 981.989C-520.469 986.028 -523.99 992.403 -524.401 999.335L-539.671 1256.89C-540.073 1263.67 -537.463 1270.27 -532.539 1274.94L-348.181 1449.8C-342.995 1454.72 -335.816 1456.94 -328.755 1455.83L-84.869 1417.2C-77.8088 1416.08 -71.6697 1411.74 -68.2572 1405.46L53.0445 1182.19C56.284 1176.23 56.7251 1169.14 54.2499 1162.82L-39.8631 922.591C-42.3959 916.126 -47.7139 911.151 -54.3334 909.055L-291.851 833.824Z" stroke="url(#paint65_linear_1_1240)" stroke-width="4"/>
<path opacity="0.971014" d="M-302.967 846.85C-309.685 844.365 -317.178 845.153 -323.233 848.98L-531.392 980.545C-537.278 984.264 -541.161 990.45 -541.954 997.367L-570.682 1247.9C-571.463 1254.71 -569.166 1261.51 -564.417 1266.45L-391.518 1446.4C-386.598 1451.52 -379.59 1454.08 -372.529 1453.34L-129.095 1427.75C-122.033 1427.01 -115.711 1423.05 -111.963 1417.02L19.7446 1205.06C23.3623 1199.23 24.1947 1192.1 22.0151 1185.6L-58.1734 946.519C-60.3874 939.918 -65.4721 934.676 -72.0022 932.261L-302.967 846.85Z" stroke="url(#paint66_linear_1_1240)" stroke-width="4"/>
<path opacity="0.985507" d="M-314.713 860.788C-321.232 858.019 -328.662 858.409 -334.856 861.843L-547.692 979.857C-553.797 983.242 -558.035 989.217 -559.21 996.098L-600.698 1238.91C-601.864 1245.74 -599.892 1252.73 -595.33 1257.94L-433.916 1442.27C-429.272 1447.57 -422.45 1450.45 -415.409 1450.09L-173.113 1437.39C-166.072 1437.02 -159.589 1433.44 -155.524 1427.68L-14.2631 1227.49C-10.2702 1221.83 -9.0397 1214.67 -10.9133 1208L-77.5543 970.856C-79.4428 964.135 -84.2814 958.636 -90.707 955.908L-314.713 860.788Z" stroke="url(#paint67_linear_1_1240)" stroke-width="4"/>
<defs>
<linearGradient id="paint0_linear_1_1240" x1="1895.21" y1="1320.87" x2="1251.64" y2="-124.615" gradientUnits="userSpaceOnUse">
<stop stop-color="#DFDFDF"/>
<stop offset="1" stop-color="#F4F4F4"/>
</linearGradient>
<linearGradient id="paint1_linear_1_1240" x1="1827.65" y1="1337.94" x2="1265.61" y2="-126.207" gradientUnits="userSpaceOnUse">
<stop stop-color="#DFDFDF"/>
<stop offset="1" stop-color="#F4F4F4"/>
</linearGradient>
<linearGradient id="paint2_linear_1_1240" x1="1760" y1="1352.82" x2="1279.68" y2="-125.449" gradientUnits="userSpaceOnUse">
<stop stop-color="#DFDFDF"/>
<stop offset="1" stop-color="#F4F4F4"/>
</linearGradient>
<linearGradient id="paint3_linear_1_1240" x1="1692.39" y1="1365.53" x2="1293.71" y2="-122.358" gradientUnits="userSpaceOnUse">
<stop stop-color="#DFDFDF"/>
<stop offset="1" stop-color="#F4F4F4"/>
</linearGradient>
<linearGradient id="paint4_linear_1_1240" x1="1624.93" y1="1376.1" x2="1307.57" y2="-116.958" gradientUnits="userSpaceOnUse">
<stop stop-color="#DFDFDF"/>
<stop offset="1" stop-color="#F4F4F4"/>
</linearGradient>
<linearGradient id="paint5_linear_1_1240" x1="1557.74" y1="1384.55" x2="1321.14" y2="-109.28" gradientUnits="userSpaceOnUse">
<stop stop-color="#DFDFDF"/>
<stop offset="1" stop-color="#F4F4F4"/>
</linearGradient>
<linearGradient id="paint6_linear_1_1240" x1="1490.94" y1="1390.91" x2="1334.3" y2="-99.3628" gradientUnits="userSpaceOnUse">
<stop stop-color="#DFDFDF"/>
<stop offset="1" stop-color="#F4F4F4"/>
</linearGradient>
<linearGradient id="paint7_linear_1_1240" x1="1424.63" y1="1395.23" x2="1346.93" y2="-87.2507" gradientUnits="userSpaceOnUse">
<stop stop-color="#DFDFDF"/>
<stop offset="1" stop-color="#F4F4F4"/>
</linearGradient>
<linearGradient id="paint8_linear_1_1240" x1="1358.92" y1="1397.56" x2="1358.92" y2="-72.9934" gradientUnits="userSpaceOnUse">
<stop stop-color="#DFDFDF"/>
<stop offset="1" stop-color="#F4F4F4"/>
</linearGradient>
<linearGradient id="paint9_linear_1_1240" x1="1293.91" y1="1397.94" x2="1370.14" y2="-56.6473" gradientUnits="userSpaceOnUse">
<stop stop-color="#DFDFDF"/>
<stop offset="1" stop-color="#F4F4F4"/>
</linearGradient>
<linearGradient id="paint10_linear_1_1240" x1="1229.71" y1="1396.44" x2="1380.51" y2="-38.2756" gradientUnits="userSpaceOnUse">
<stop stop-color="#DFDFDF"/>
<stop offset="1" stop-color="#F4F4F4"/>
</linearGradient>
<linearGradient id="paint11_linear_1_1240" x1="1166.41" y1="1393.12" x2="1389.9" y2="-17.9461" gradientUnits="userSpaceOnUse">
<stop stop-color="#DFDFDF"/>
<stop offset="1" stop-color="#F4F4F4"/>
</linearGradient>
<linearGradient id="paint12_linear_1_1240" x1="1104.1" y1="1388.05" x2="1398.23" y2="4.26837" gradientUnits="userSpaceOnUse">
<stop stop-color="#DFDFDF"/>
<stop offset="1" stop-color="#F4F4F4"/>
</linearGradient>
<linearGradient id="paint13_linear_1_1240" x1="1042.87" y1="1381.29" x2="1405.4" y2="28.2907" gradientUnits="userSpaceOnUse">
<stop stop-color="#DFDFDF"/>
<stop offset="1" stop-color="#F4F4F4"/>
</linearGradient>
<linearGradient id="paint14_linear_1_1240" x1="982.792" y1="1372.93" x2="1411.32" y2="54.0391" gradientUnits="userSpaceOnUse">
<stop stop-color="#DFDFDF"/>
<stop offset="1" stop-color="#F4F4F4"/>
</linearGradient>
<linearGradient id="paint15_linear_1_1240" x1="923.954" y1="1363.04" x2="1415.92" y2="81.4253" gradientUnits="userSpaceOnUse">
<stop stop-color="#DFDFDF"/>
<stop offset="1" stop-color="#F4F4F4"/>
</linearGradient>
<linearGradient id="paint16_linear_1_1240" x1="866.425" y1="1351.71" x2="1419.11" y2="110.36" gradientUnits="userSpaceOnUse">
<stop stop-color="#DFDFDF"/>
<stop offset="1" stop-color="#F4F4F4"/>
</linearGradient>
<linearGradient id="paint17_linear_1_1240" x1="810.268" y1="1339.03" x2="1420.82" y2="140.75" gradientUnits="userSpaceOnUse">
<stop stop-color="#DFDFDF"/>
<stop offset="1" stop-color="#F4F4F4"/>
</linearGradient>
<linearGradient id="paint18_linear_1_1240" x1="755.546" y1="1325.09" x2="1421" y2="172.497" gradientUnits="userSpaceOnUse">
<stop stop-color="#DFDFDF"/>
<stop offset="1" stop-color="#F4F4F4"/>
</linearGradient>
<linearGradient id="paint19_linear_1_1240" x1="702.313" y1="1309.98" x2="1419.57" y2="205.503" gradientUnits="userSpaceOnUse">
<stop stop-color="#DFDFDF"/>
<stop offset="1" stop-color="#F4F4F4"/>
</linearGradient>
<linearGradient id="paint20_linear_1_1240" x1="650.619" y1="1293.79" x2="1416.48" y2="239.664" gradientUnits="userSpaceOnUse">
<stop stop-color="#DFDFDF"/>
<stop offset="1" stop-color="#F4F4F4"/>
</linearGradient>
<linearGradient id="paint21_linear_1_1240" x1="600.505" y1="1276.62" x2="1411.7" y2="274.877" gradientUnits="userSpaceOnUse">
<stop stop-color="#DFDFDF"/>
<stop offset="1" stop-color="#F4F4F4"/>
</linearGradient>
<linearGradient id="paint22_linear_1_1240" x1="552.012" y1="1258.57" x2="1405.18" y2="311.036" gradientUnits="userSpaceOnUse">
<stop stop-color="#DFDFDF"/>
<stop offset="1" stop-color="#F4F4F4"/>
</linearGradient>
<linearGradient id="paint23_linear_1_1240" x1="505.168" y1="1239.75" x2="1396.88" y2="348.034" gradientUnits="userSpaceOnUse">
<stop stop-color="#DFDFDF"/>
<stop offset="1" stop-color="#F4F4F4"/>
</linearGradient>
<linearGradient id="paint24_linear_1_1240" x1="460" y1="1220.24" x2="1386.78" y2="385.762" gradientUnits="userSpaceOnUse">
<stop stop-color="#DFDFDF"/>
<stop offset="1" stop-color="#F4F4F4"/>
</linearGradient>
<linearGradient id="paint25_linear_1_1240" x1="416.528" y1="1200.15" x2="1374.86" y2="424.113" gradientUnits="userSpaceOnUse">
<stop stop-color="#DFDFDF"/>
<stop offset="1" stop-color="#F4F4F4"/>
</linearGradient>
<linearGradient id="paint26_linear_1_1240" x1="374.765" y1="1179.59" x2="1361.1" y2="462.976" gradientUnits="userSpaceOnUse">
<stop stop-color="#DFDFDF"/>
<stop offset="1" stop-color="#F4F4F4"/>
</linearGradient>
<linearGradient id="paint27_linear_1_1240" x1="334.719" y1="1158.65" x2="1345.49" y2="502.246" gradientUnits="userSpaceOnUse">
<stop stop-color="#DFDFDF"/>
<stop offset="1" stop-color="#F4F4F4"/>
</linearGradient>
<linearGradient id="paint28_linear_1_1240" x1="296.392" y1="1137.43" x2="1328.04" y2="541.811" gradientUnits="userSpaceOnUse">
<stop stop-color="#DFDFDF"/>
<stop offset="1" stop-color="#F4F4F4"/>
</linearGradient>
<linearGradient id="paint29_linear_1_1240" x1="259.78" y1="1116.04" x2="1308.74" y2="581.567" gradientUnits="userSpaceOnUse">
<stop stop-color="#DFDFDF"/>
<stop offset="1" stop-color="#F4F4F4"/>
</linearGradient>
<linearGradient id="paint30_linear_1_1240" x1="224.874" y1="1094.57" x2="1287.61" y2="621.407" gradientUnits="userSpaceOnUse">
<stop stop-color="#DFDFDF"/>
<stop offset="1" stop-color="#F4F4F4"/>
</linearGradient>
<linearGradient id="paint31_linear_1_1240" x1="191.657" y1="1073.12" x2="1264.67" y2="661.227" gradientUnits="userSpaceOnUse">
<stop stop-color="#DFDFDF"/>
<stop offset="1" stop-color="#F4F4F4"/>
</linearGradient>
<linearGradient id="paint32_linear_1_1240" x1="160.111" y1="1051.78" x2="1239.93" y2="700.925" gradientUnits="userSpaceOnUse">
<stop stop-color="#DFDFDF"/>
<stop offset="1" stop-color="#F4F4F4"/>
</linearGradient>
<linearGradient id="paint33_linear_1_1240" x1="130.208" y1="1030.65" x2="1213.42" y2="740.401" gradientUnits="userSpaceOnUse">
<stop stop-color="#DFDFDF"/>
<stop offset="1" stop-color="#F4F4F4"/>
</linearGradient>
<linearGradient id="paint34_linear_1_1240" x1="101.919" y1="1009.81" x2="1185.17" y2="779.557" gradientUnits="userSpaceOnUse">
<stop stop-color="#DFDFDF"/>
<stop offset="1" stop-color="#F4F4F4"/>
</linearGradient>
<linearGradient id="paint35_linear_1_1240" x1="75.2075" y1="989.36" x2="1155.23" y2="818.301" gradientUnits="userSpaceOnUse">
<stop stop-color="#DFDFDF"/>
<stop offset="1" stop-color="#F4F4F4"/>
</linearGradient>
<linearGradient id="paint36_linear_1_1240" x1="50.0327" y1="969.379" x2="1123.64" y2="856.539" gradientUnits="userSpaceOnUse">
<stop stop-color="#DFDFDF"/>
<stop offset="1" stop-color="#F4F4F4"/>
</linearGradient>
<linearGradient id="paint37_linear_1_1240" x1="26.3491" y1="949.95" x2="1090.45" y2="894.183" gradientUnits="userSpaceOnUse">
<stop stop-color="#DFDFDF"/>
<stop offset="1" stop-color="#F4F4F4"/>
</linearGradient>
<linearGradient id="paint38_linear_1_1240" x1="4.10852" y1="931.15" x2="1055.7" y2="931.15" gradientUnits="userSpaceOnUse">
<stop stop-color="#DFDFDF"/>
<stop offset="1" stop-color="#F4F4F4"/>
</linearGradient>
<linearGradient id="paint39_linear_1_1240" x1="-16.7428" y1="913.056" x2="1019.46" y2="967.361" gradientUnits="userSpaceOnUse">
<stop stop-color="#DFDFDF"/>
<stop offset="1" stop-color="#F4F4F4"/>
</linearGradient>
<linearGradient id="paint40_linear_1_1240" x1="-36.2628" y1="895.736" x2="981.791" y2="1002.74" gradientUnits="userSpaceOnUse">
<stop stop-color="#DFDFDF"/>
<stop offset="1" stop-color="#F4F4F4"/>
</linearGradient>
<linearGradient id="paint41_linear_1_1240" x1="-54.5114" y1="879.259" x2="942.754" y2="1037.21" gradientUnits="userSpaceOnUse">
<stop stop-color="#DFDFDF"/>
<stop offset="1" stop-color="#F4F4F4"/>
</linearGradient>
<linearGradient id="paint42_linear_1_1240" x1="-71.5529" y1="863.686" x2="902.419" y2="1070.71" gradientUnits="userSpaceOnUse">
<stop stop-color="#DFDFDF"/>
<stop offset="1" stop-color="#F4F4F4"/>
</linearGradient>
<linearGradient id="paint43_linear_1_1240" x1="-87.4544" y1="849.075" x2="860.858" y2="1103.17" gradientUnits="userSpaceOnUse">
<stop stop-color="#DFDFDF"/>
<stop offset="1" stop-color="#F4F4F4"/>
</linearGradient>
<linearGradient id="paint44_linear_1_1240" x1="-102.285" y1="835.48" x2="818.147" y2="1134.55" gradientUnits="userSpaceOnUse">
<stop stop-color="#DFDFDF"/>
<stop offset="1" stop-color="#F4F4F4"/>
</linearGradient>
<linearGradient id="paint45_linear_1_1240" x1="-116.119" y1="822.951" x2="774.363" y2="1164.77" gradientUnits="userSpaceOnUse">
<stop stop-color="#DFDFDF"/>
<stop offset="1" stop-color="#F4F4F4"/>
</linearGradient>
<linearGradient id="paint46_linear_1_1240" x1="-129.028" y1="811.531" x2="729.586" y2="1193.81" gradientUnits="userSpaceOnUse">
<stop stop-color="#DFDFDF"/>
<stop offset="1" stop-color="#F4F4F4"/>
</linearGradient>
<linearGradient id="paint47_linear_1_1240" x1="-141.089" y1="801.259" x2="683.897" y2="1221.61" gradientUnits="userSpaceOnUse">
<stop stop-color="#DFDFDF"/>
<stop offset="1" stop-color="#F4F4F4"/>
</linearGradient>
<linearGradient id="paint48_linear_1_1240" x1="-152.381" y1="792.17" x2="637.381" y2="1248.14" gradientUnits="userSpaceOnUse">
<stop stop-color="#DFDFDF"/>
<stop offset="1" stop-color="#F4F4F4"/>
</linearGradient>
<linearGradient id="paint49_linear_1_1240" x1="-162.981" y1="784.293" x2="590.122" y2="1273.36" gradientUnits="userSpaceOnUse">
<stop stop-color="#DFDFDF"/>
<stop offset="1" stop-color="#F4F4F4"/>
</linearGradient>
<linearGradient id="paint50_linear_1_1240" x1="-172.971" y1="777.654" x2="542.206" y2="1297.26" gradientUnits="userSpaceOnUse">
<stop stop-color="#DFDFDF"/>
<stop offset="1" stop-color="#F4F4F4"/>
</linearGradient>
<linearGradient id="paint51_linear_1_1240" x1="-182.43" y1="772.271" x2="493.72" y2="1319.81" gradientUnits="userSpaceOnUse">
<stop stop-color="#DFDFDF"/>
<stop offset="1" stop-color="#F4F4F4"/>
</linearGradient>
<linearGradient id="paint52_linear_1_1240" x1="-191.439" y1="768.158" x2="444.75" y2="1340.99" gradientUnits="userSpaceOnUse">
<stop stop-color="#DFDFDF"/>
<stop offset="1" stop-color="#F4F4F4"/>
</linearGradient>
<linearGradient id="paint53_linear_1_1240" x1="-200.079" y1="765.326" x2="395.384" y2="1360.79" gradientUnits="userSpaceOnUse">
<stop stop-color="#DFDFDF"/>
<stop offset="1" stop-color="#F4F4F4"/>
</linearGradient>
<linearGradient id="paint54_linear_1_1240" x1="-208.43" y1="763.778" x2="345.708" y2="1379.21" gradientUnits="userSpaceOnUse">
<stop stop-color="#DFDFDF"/>
<stop offset="1" stop-color="#F4F4F4"/>
</linearGradient>
<linearGradient id="paint55_linear_1_1240" x1="-216.574" y1="763.515" x2="295.807" y2="1396.25" gradientUnits="userSpaceOnUse">
<stop stop-color="#DFDFDF"/>
<stop offset="1" stop-color="#F4F4F4"/>
</linearGradient>
<linearGradient id="paint56_linear_1_1240" x1="-224.588" y1="764.53" x2="245.767" y2="1411.92" gradientUnits="userSpaceOnUse">
<stop stop-color="#DFDFDF"/>
<stop offset="1" stop-color="#F4F4F4"/>
</linearGradient>
<linearGradient id="paint57_linear_1_1240" x1="-232.55" y1="766.816" x2="195.672" y2="1426.22" gradientUnits="userSpaceOnUse">
<stop stop-color="#DFDFDF"/>
<stop offset="1" stop-color="#F4F4F4"/>
</linearGradient>
<linearGradient id="paint58_linear_1_1240" x1="-240.538" y1="770.356" x2="145.604" y2="1439.17" gradientUnits="userSpaceOnUse">
<stop stop-color="#DFDFDF"/>
<stop offset="1" stop-color="#F4F4F4"/>
</linearGradient>
<linearGradient id="paint59_linear_1_1240" x1="-248.625" y1="775.131" x2="95.6444" y2="1450.8" gradientUnits="userSpaceOnUse">
<stop stop-color="#DFDFDF"/>
<stop offset="1" stop-color="#F4F4F4"/>
</linearGradient>
<linearGradient id="paint60_linear_1_1240" x1="-256.886" y1="781.119" x2="45.8702" y2="1461.12" gradientUnits="userSpaceOnUse">
<stop stop-color="#DFDFDF"/>
<stop offset="1" stop-color="#F4F4F4"/>
</linearGradient>
<linearGradient id="paint61_linear_1_1240" x1="-265.39" y1="788.292" x2="-3.64232" y2="1470.17" gradientUnits="userSpaceOnUse">
<stop stop-color="#DFDFDF"/>
<stop offset="1" stop-color="#F4F4F4"/>
</linearGradient>
<linearGradient id="paint62_linear_1_1240" x1="-274.207" y1="796.617" x2="-52.8199" y2="1477.98" gradientUnits="userSpaceOnUse">
<stop stop-color="#DFDFDF"/>
<stop offset="1" stop-color="#F4F4F4"/>
</linearGradient>
<linearGradient id="paint63_linear_1_1240" x1="-283.4" y1="806.061" x2="-101.591" y2="1484.58" gradientUnits="userSpaceOnUse">
<stop stop-color="#DFDFDF"/>
<stop offset="1" stop-color="#F4F4F4"/>
</linearGradient>
<linearGradient id="paint64_linear_1_1240" x1="-293.034" y1="816.583" x2="-149.889" y2="1490.03" gradientUnits="userSpaceOnUse">
<stop stop-color="#DFDFDF"/>
<stop offset="1" stop-color="#F4F4F4"/>
</linearGradient>
<linearGradient id="paint65_linear_1_1240" x1="-303.169" y1="828.141" x2="-197.649" y2="1494.36" gradientUnits="userSpaceOnUse">
<stop stop-color="#DFDFDF"/>
<stop offset="1" stop-color="#F4F4F4"/>
</linearGradient>
<linearGradient id="paint66_linear_1_1240" x1="-313.859" y1="840.69" x2="-244.812" y2="1497.63" gradientUnits="userSpaceOnUse">
<stop stop-color="#DFDFDF"/>
<stop offset="1" stop-color="#F4F4F4"/>
</linearGradient>
<linearGradient id="paint67_linear_1_1240" x1="-325.159" y1="854.179" x2="-291.318" y2="1499.89" gradientUnits="userSpaceOnUse">
<stop stop-color="#DFDFDF"/>
<stop offset="1" stop-color="#F4F4F4"/>
</linearGradient>
</defs>
</svg>
