<svg width="468" height="406" viewBox="0 0 468 406" fill="none" xmlns="http://www.w3.org/2000/svg">
<path d="M409.56 285.867C383.533 314.212 342.391 342.469 296.27 362.65C201.384 404.203 85.3655 411.479 36.1907 314.601C9.01571 261.074 54.1197 233.986 68.6708 186.781C83.2435 139.577 37.3383 96.3353 54.6177 47.1821C59.4464 33.4106 68.1078 21.9343 79.1077 13.7709C93.7454 2.87929 112.454 -2.1876 131.639 0.88718C147.402 3.42063 162.278 9.6568 176.981 15.9146C201.06 26.1567 224.705 35.7708 249.217 43.2195C292.35 56.3632 335.354 53.5482 378.682 63.2489C401.916 68.4674 424.631 78.7961 440.806 96.292C495.784 155.752 456.072 235.307 409.603 285.867H409.56Z" fill="url(#paint0_linear_9_382)"/>
<path d="M366.08 32.4143C384.594 34.1899 400.639 39.4516 413.782 48.048C443.339 67.3412 458.085 96.3784 457.652 134.38C457.306 164.673 446.934 200.163 428.42 234.289C406.745 274.261 365.972 317.135 319.352 348.943C266.366 385.105 212.189 402.601 166.826 398.227C132.635 394.935 103.359 379.54 79.8223 352.451C54.7043 323.587 62.3696 298.491 71.2475 269.411C75.6648 254.924 80.2553 239.94 81.1214 223.376C82.464 198.106 69.4719 177.514 56.8913 157.614C43.6394 136.654 31.1238 116.841 33.4407 91.5714C36.3639 59.546 61.5251 34.2981 93.2257 31.5049C100.263 30.8986 107.993 31.0068 116.893 31.8513C124.796 32.6092 132.83 33.8651 139.889 34.991C156.172 37.5461 175.357 40.4044 194.304 42.2449C202.272 43.0028 209.699 43.5658 216.996 43.9339C242.656 45.2114 267.276 41.5087 291.073 37.9143C309.478 35.1426 328.49 32.2844 347.74 31.7863C353.997 31.6348 360.147 31.8297 366.058 32.3926L366.08 32.4143ZM366.47 28.4517C360.212 27.8454 353.911 27.6505 347.675 27.8238C303.307 28.9714 262.295 42.18 217.235 39.9713C209.721 39.6032 202.207 39.0186 194.715 38.304C176.721 36.5717 158.77 33.9517 140.517 31.0934C132.808 29.8808 125.056 28.6899 117.283 27.932C109.163 27.1525 101.021 26.8494 92.8792 27.5639C59.0133 30.5304 32.5962 57.3157 29.4781 91.2249C24.736 143.106 79.7789 173.854 77.1589 223.181C74.5388 272.507 37.4033 309.794 76.8124 355.071C102.602 384.715 133.544 399.006 166.436 402.189C268.618 412.041 389.466 314.428 431.906 236.194C464.646 175.846 483.744 89.0163 415.948 44.7351C401.245 35.121 384.031 30.1623 366.448 28.4734L366.47 28.4517Z" fill="url(#paint1_linear_9_382)"/>
<path d="M322.319 335.324C324.094 348.944 332.712 360.788 344.643 367.523C359.974 376.206 381.194 375.513 396.741 367.826C410.751 360.897 421.578 347.19 423.527 331.686C428.507 292.212 382.363 276.6 351.464 287.708C332.474 294.529 319.699 315.338 322.319 335.302V335.324Z" fill="url(#paint2_linear_9_382)"/>
<path d="M301.033 390.735C302.354 401.995 315.671 408.404 325.999 405.156C344.253 399.418 344.491 371.463 323.553 370.251C312.12 369.601 299.561 378.306 301.011 390.735H301.033Z" fill="url(#paint3_linear_9_382)"/>
<g filter="url(#filter0_d_9_382)">
<path d="M111.155 323.219C171.439 323.219 220.309 274.349 220.309 214.065C220.309 153.78 171.439 104.91 111.155 104.91C50.8702 104.91 2 153.78 2 214.065C2 274.349 50.8702 323.219 111.155 323.219Z" fill="url(#paint4_linear_9_382)"/>
</g>
<path d="M2.21665 213.372C2.2383 199.102 5.05324 184.854 10.5099 171.689C15.9665 158.502 24.0433 146.441 34.1121 136.351C44.2026 126.282 56.2851 118.184 69.4504 112.749C82.6157 107.27 96.8852 104.477 111.133 104.455C125.403 104.477 139.651 107.292 152.816 112.749C166.003 118.205 178.064 126.282 188.154 136.351C198.223 146.441 206.321 158.524 211.756 171.689C217.235 184.854 220.028 199.124 220.05 213.372H217.625C216.91 199.427 213.857 185.699 208.119 173.183C202.575 160.603 194.585 149.17 184.755 139.729C174.859 130.374 163.404 122.623 150.802 117.556C138.222 112.445 124.667 109.869 111.112 109.934C97.5565 109.869 84.0015 112.424 71.4209 117.556C58.8186 122.623 47.364 130.353 37.4684 139.729C27.6161 149.17 19.6476 160.603 14.1044 173.183C8.36621 185.699 5.31308 199.427 4.59852 213.372H2.17334H2.21665Z" fill="url(#paint5_radial_9_382)"/>
<path d="M226.805 71.1308C232.608 84.361 246.272 93.7802 260.714 94.4731C280.895 95.4475 298.175 81.1996 316.818 73.3611C324.722 70.0481 333.513 67.5363 339.035 60.9754C346.094 52.5738 345.293 39.3653 339.013 30.3791C325.09 10.4797 289.752 9.54857 267.882 13.4462C240.339 18.3615 213.337 40.3613 226.827 71.1308H226.805Z" fill="url(#paint6_linear_9_382)"/>
<defs>
<filter id="filter0_d_9_382" x="0.84" y="103.75" width="226.029" height="226.029" filterUnits="userSpaceOnUse" color-interpolation-filters="sRGB">
<feFlood flood-opacity="0" result="BackgroundImageFix"/>
<feColorMatrix in="SourceAlpha" type="matrix" values="0 0 0 0 0 0 0 0 0 0 0 0 0 0 0 0 0 0 127 0" result="hardAlpha"/>
<feOffset dx="2.7" dy="2.7"/>
<feGaussianBlur stdDeviation="1.93"/>
<feColorMatrix type="matrix" values="0 0 0 0 0 0 0 0 0 0 0 0 0 0 0 0 0 0 0.3 0"/>
<feBlend mode="normal" in2="BackgroundImageFix" result="effect1_dropShadow_9_382"/>
<feBlend mode="normal" in="SourceGraphic" in2="effect1_dropShadow_9_382" result="shape"/>
</filter>
<linearGradient id="paint0_linear_9_382" x1="-133.334" y1="306.373" x2="518.173" y2="64.2233" gradientUnits="userSpaceOnUse">
<stop offset="0.01" stop-color="#6EBAD4"/>
<stop offset="1" stop-color="#752ABF"/>
</linearGradient>
<linearGradient id="paint1_linear_9_382" x1="-212.389" y1="350.082" x2="570.908" y2="58.6766" gradientUnits="userSpaceOnUse">
<stop offset="0.01" stop-color="#6EBAD4"/>
<stop offset="1" stop-color="#752ABF"/>
</linearGradient>
<linearGradient id="paint2_linear_9_382" x1="445.402" y1="372.07" x2="299.666" y2="285.609" gradientUnits="userSpaceOnUse">
<stop offset="0.01" stop-color="#6EBAD4"/>
<stop offset="1" stop-color="#752ABF"/>
</linearGradient>
<linearGradient id="paint3_linear_9_382" x1="267.254" y1="421.851" x2="339.035" y2="376.552" gradientUnits="userSpaceOnUse">
<stop offset="0.01" stop-color="#6EBAD4"/>
<stop offset="1" stop-color="#752ABF"/>
</linearGradient>
<linearGradient id="paint4_linear_9_382" x1="111.155" y1="123.683" x2="111.155" y2="261.897" gradientUnits="userSpaceOnUse">
<stop stop-color="#E3E1EA"/>
<stop offset="1" stop-color="white"/>
</linearGradient>
<radialGradient id="paint5_radial_9_382" cx="0" cy="0" r="1" gradientUnits="userSpaceOnUse" gradientTransform="translate(111.155 158.112) scale(87.3498 87.3498)">
<stop stop-color="white"/>
<stop offset="0.27" stop-color="white" stop-opacity="0.98"/>
<stop offset="0.56" stop-color="white" stop-opacity="0.93"/>
<stop offset="0.86" stop-color="white" stop-opacity="0.85"/>
<stop offset="1" stop-color="white" stop-opacity="0.8"/>
</radialGradient>
<linearGradient id="paint6_linear_9_382" x1="225.874" y1="80.4851" x2="383.944" y2="-10.9355" gradientUnits="userSpaceOnUse">
<stop offset="0.01" stop-color="#6EBAD4"/>
<stop offset="1" stop-color="#752ABF"/>
</linearGradient>
</defs>
</svg>
